<?xml version="1.0" encoding="utf-8"?>
<!-- Generator: Adobe Illustrator 22.0.0, SVG Export Plug-In . SVG Version: 6.00 Build 0)  -->
<svg version="1.1" id="图层_1" xmlns="http://www.w3.org/2000/svg" xmlns:xlink="http://www.w3.org/1999/xlink" x="0px" y="0px"
	 viewBox="0 0 16 16" style="enable-background:new 0 0 16 16;" xml:space="preserve">
<style type="text/css">
	.st0{opacity:0;fill:#FFFFFF;fill-opacity:0;}
	.st1{fill:url(#形状_2_);}
	.st2{fill:#4AA7FF;}
</style>
<title>组icon copy 3</title>
<desc>Created with Sketch.</desc>
<g>
	<rect y="0" class="st0" width="16" height="16"/>
	<g id="页面-1">
		<g id="搜索结果-鼠标悬停气泡备份" transform="translate(-424.000000, -2368.000000)">
			<g id="编组-3" transform="translate(400.000000, 190.000000)">
				<g id="编组-5" transform="translate(24.000000, 945.000000)">
					<g id="编组-17备份-2" transform="translate(0.000000, 1078.000000)">
						<g id="编组-11备份-2">
							<g id="编组-9备份-6" transform="translate(0.000000, 152.000000)">
								<g id="部门_x2F_组icon-copy-2备份-3" transform="translate(0.000000, 2.000000)">
									<g id="编组" transform="translate(0.000000, 1.000000)">
										
											<linearGradient id="形状_2_" gradientUnits="userSpaceOnUse" x1="-858.267" y1="253.9363" x2="-857.6535" y2="253.1278" gradientTransform="matrix(12.5299 0 0 -12.5298 10757.3809 3182.5554)">
											<stop  offset="0" style="stop-color:#54ADFF"/>
											<stop  offset="1" style="stop-color:#3297FF"/>
										</linearGradient>
										<path id="形状" class="st1" d="M13,1.4v4.7l0,0l-7.1,7.1c-0.4,0.4-1,0.4-1.4,0L0.7,9.4C0.3,9,0.3,8.4,0.7,8l7.1-7.1h4.7
											C12.7,0.9,13,1.2,13,1.4z M9,3.3C8.1,3.3,7.5,4,7.5,4.8S8.1,6.3,9,6.3c0.8,0,1.5-0.7,1.5-1.5S9.8,3.3,9,3.3z"/>
										<g id="编组备份" transform="translate(4.845405, 0.995556)">
											<path id="形状_1_" class="st2" d="M9.5,5.9l-6.9,6.9C2.4,13,2.2,13,2,12.8l-0.8,0.8c0.6,0.6,1.6,0.6,2.3,0l7.1-7.1
												c0.1-0.1,0.2-0.3,0.2-0.4V0.9H9.5V5.9z"/>
										</g>
									</g>
								</g>
							</g>
						</g>
					</g>
				</g>
			</g>
		</g>
	</g>
</g>
</svg>
