<?xml version="1.0" encoding="utf-8"?>
<!-- Generator: Adobe Illustrator 22.0.0, SVG Export Plug-In . SVG Version: 6.00 Build 0)  -->
<svg version="1.1" id="图层_1" xmlns="http://www.w3.org/2000/svg" xmlns:xlink="http://www.w3.org/1999/xlink" x="0px" y="0px"
	 viewBox="0 0 16 16" style="enable-background:new 0 0 16 16;" xml:space="preserve">
<style type="text/css">
	.st0{fill:#FFFFFF;fill-opacity:0;}
	.st1{fill:url(#Fill-1_1_);}
</style>
<title>组icon</title>
<desc>Created with Sketch.</desc>
<g>
	<rect class="st0" width="16" height="16"/>
	<g id="页面-1_1_">
		<g id="搜索结果-鼠标悬停气泡备份-2" transform="translate(-425.000000, -2143.000000)">
			<g id="编组-3" transform="translate(400.000000, 190.000000)">
				<g id="编组-4" transform="translate(24.000000, 1584.000000)">
					<g id="部门备份-18" transform="translate(0.000000, 366.000000)">
						<g id="编组-11">
							<g id="icon_school" transform="translate(0.000000, 2.000000)">
								
									<linearGradient id="Fill-1_1_" gradientUnits="userSpaceOnUse" x1="-287.6552" y1="307.5948" x2="-287.0423" y2="306.7863" gradientTransform="matrix(13.996 0 0 -14.003 4028.7749 4311)">
									<stop  offset="0" style="stop-color:#54ADFF"/>
									<stop  offset="1" style="stop-color:#3297FF"/>
								</linearGradient>
								<path id="Fill-1" class="st1" d="M7.8,9.1c0-0.7,0.5-1.2,1.2-1.2s1.2,0.5,1.2,1.2S9.7,10.3,9,10.3S7.8,9.7,7.8,9.1z
									 M13.1,9.9V7.5c0.1,0,0.3-0.1,0.4-0.2c0.2-0.3,0.2-0.8-0.2-1L9.4,3.9c0,0-0.1,0-0.1-0.1V3.5h2.1l0-1.5H8.7v0.6h0v1.2
									c0,0-0.1,0-0.1,0.1L4.7,6.3C4.4,6.5,4.3,7,4.5,7.3c0.1,0.1,0.2,0.2,0.4,0.2v2.4H3.4C2.6,9.9,2,10.6,2,11.3V16h2.6h2.9v-1.4
									c0-0.7,0.7-1.3,1.5-1.3s1.5,0.6,1.5,1.3V16h2.9H16v-4.7c0-0.8-0.6-1.4-1.4-1.4H13.1z"/>
							</g>
						</g>
					</g>
				</g>
			</g>
		</g>
	</g>
</g>
</svg>
