<?xml version="1.0" encoding="utf-8"?>
<!-- Generator: Adobe Illustrator 22.0.0, SVG Export Plug-In . SVG Version: 6.00 Build 0)  -->
<svg version="1.1" id="图层_1" xmlns="http://www.w3.org/2000/svg" xmlns:xlink="http://www.w3.org/1999/xlink" x="0px" y="0px"
	 viewBox="0 0 20 20" style="enable-background:new 0 0 20 20;" xml:space="preserve">
<style type="text/css">
	.st0{fill:url(#矩形_1_);}
	.st1{fill:#FAFBFC;}
</style>
<title>组织</title>
<desc>Created with Sketch.</desc>
<g id="页面-1">
	<g id="部门列表为空时" transform="translate(-294.000000, -277.000000)">
		<g id="编组-9" transform="translate(278.000000, 277.000000)">
			<g id="组织" transform="translate(16.000000, 0.000000)">
				
					<linearGradient id="矩形_1_" gradientUnits="userSpaceOnUse" x1="-294.2027" y1="316.1684" x2="-293.6184" y2="315.3984" gradientTransform="matrix(21 0 0 -21 6181.3833 6640.478)">
					<stop  offset="0" style="stop-color:#73E9A9"/>
					<stop  offset="1" style="stop-color:#2CCA8A"/>
				</linearGradient>
				<path id="矩形" class="st0" d="M1.8,0h16.4c1,0,1.8,0.8,1.8,1.8v16.4c0,1-0.8,1.8-1.8,1.8H1.8c-1,0-1.8-0.8-1.8-1.8V1.8
					C0,0.8,0.8,0,1.8,0z"/>
				<path id="形状" class="st1" d="M5.8,10.2c0-0.2,0.1-0.4,0.3-0.4h3.4v1.7h0.9V9.9h3.4c0.2,0,0.3,0.2,0.3,0.4v1.3h0.9v-1.3
					c0-0.7-0.5-1.2-1.2-1.2h-3.4V7.5c0.8-0.2,1.3-1,1.3-1.8c0-1-0.8-1.9-1.8-1.9S8.1,4.7,8.1,5.7c0,0.9,0.6,1.7,1.4,1.8V9H6.1
					c-0.6,0-1.2,0.5-1.2,1.2v1.3h0.9L5.8,10.2L5.8,10.2z M9.9,12.4c-1,0-1.8,0.8-1.8,1.9c0,1,0.8,1.9,1.8,1.9s1.8-0.8,1.8-1.9
					C11.6,13.2,10.8,12.4,9.9,12.4z M5.6,12.4c-1,0-1.8,0.8-1.8,1.9c0,1,0.8,1.9,1.8,1.9c1,0,1.8-0.8,1.8-1.9
					C7.3,13.3,6.6,12.4,5.6,12.4z M14.4,12.4c-1,0-1.8,0.8-1.8,1.9c0,1,0.8,1.9,1.8,1.9c1,0,1.8-0.8,1.8-1.9
					C16.2,13.3,15.4,12.4,14.4,12.4z"/>
			</g>
		</g>
	</g>
</g>
</svg>
