<?xml version="1.0" encoding="utf-8"?>
<!-- Generator: Adobe Illustrator 22.0.0, SVG Export Plug-In . SVG Version: 6.00 Build 0)  -->
<svg version="1.1" id="图层_1" xmlns="http://www.w3.org/2000/svg" xmlns:xlink="http://www.w3.org/1999/xlink" x="0px" y="0px"
	 viewBox="0 0 16 16" style="enable-background:new 0 0 16 16;" xml:space="preserve">
<style type="text/css">
	.st0{opacity:0;fill:#FFFFFF;}
	.st1{fill:url(#形状结合_1_);}
	.st2{fill:url(#矩形_1_);}
</style>
<title>组icon copy</title>
<desc>Created with Sketch.</desc>
<g>
	<rect class="st0" width="16" height="16"/>
	<g id="页面-1">
		<g id="部门列表为空时" transform="translate(-309.000000, -325.000000)">
			<g id="编组-6" transform="translate(293.000000, 321.000000)">
				<g id="部门_x2F_组icon-copy-2备份-4" transform="translate(16.000000, 3.000000)">
					<g id="编组-7备份" transform="translate(0.875000, 1.750000)">
						
							<linearGradient id="形状结合_1_" gradientUnits="userSpaceOnUse" x1="-541.934" y1="396.2737" x2="-541.233" y2="396.3223" gradientTransform="matrix(7.6271 0 0 1.575 4135.4121 -621.9999)">
							<stop  offset="0" style="stop-color:#54ADFF"/>
							<stop  offset="1" style="stop-color:#3297FF"/>
						</linearGradient>
						<path id="形状结合" class="st1" d="M6.6,1.3c0.3,0,0.6,0.1,0.8,0.3l1.5,1.5H0.1V2.7c0-0.8,0.8-1.5,1.7-1.5L6.6,1.3
							L6.6,1.3z"/>
						
							<linearGradient id="矩形_1_" gradientUnits="userSpaceOnUse" x1="-572.7407" y1="79.5736" x2="-572.0397" y2="79.9555" gradientTransform="matrix(12.25 0 0 7.875 7018.9385 -619.375)">
							<stop  offset="0" style="stop-color:#54ADFF"/>
							<stop  offset="1" style="stop-color:#3297FF"/>
						</linearGradient>
						<path id="矩形" class="st2" d="M0.1,4.2h11.7c1.3,0,2.3,1,2.3,2.3V11c0,1.3-1,2.3-2.3,2.3H2.4c-1.3,0-2.3-1-2.3-2.3L0.1,4.2
							L0.1,4.2z"/>
					</g>
				</g>
			</g>
		</g>
	</g>
</g>
</svg>
