<?xml version="1.0" encoding="utf-8"?>
<!-- Generator: Adobe Illustrator 22.0.0, SVG Export Plug-In . SVG Version: 6.00 Build 0)  -->
<svg version="1.1" id="图层_1" xmlns="http://www.w3.org/2000/svg" xmlns:xlink="http://www.w3.org/1999/xlink" x="0px" y="0px"
	 viewBox="0 0 16 16" style="enable-background:new 0 0 16 16;" xml:space="preserve">
<style type="text/css">
	.st0{opacity:0;fill:#FFFFFF;}
	.st1{fill:url(#SVGID_1_);}
	.st2{fill:url(#SVGID_2_);}
</style>
<title>组icon copy</title>
<desc>Created with Sketch.</desc>
<g>
	<rect class="st0" width="16" height="16"/>
	<g>
		<linearGradient id="SVGID_1_" gradientUnits="userSpaceOnUse" x1="2.2918" y1="4.2519" x2="10.8787" y2="13.9236">
			<stop  offset="0" style="stop-color:#54ADFF"/>
			<stop  offset="1" style="stop-color:#3297FF"/>
		</linearGradient>
		<path class="st1" d="M9.9,14.1l-0.1,0C9.4,14,9,13.7,8.9,13.2c0-0.1-0.1-0.4-0.1-0.8c0-0.2,0-0.5,0.1-0.7C9,11.3,9.2,11,9.5,10.9
			l0.2-0.1H10c-0.2-0.4,0-1,0.4-1.3l0.1,0l0.9-0.5l0.2-0.1l0.2,0c0.3,0,0.7,0.1,0.9,0.4c0,0,0,0,0,0c0,0,0,0,0,0
			c0.2-0.2,0.5-0.4,0.9-0.4h0.2l0.3,0.1l0.5,0.3V7.4c0-1.1-0.9-2-2-2h-1.2V4.7c0-2.1-1.7-3.8-3.8-3.8S3.7,2.6,3.7,4.7v0.8H2.5
			c-1.1,0-2,0.9-2,2v5.4c0,1.1,0.9,2,2,2h7.4C9.9,14.5,9.9,14.3,9.9,14.1L9.9,14.1z M5.3,4.7c0-1.2,1-2.2,2.2-2.2s2.2,1,2.2,2.2v0.8
			H5.3V4.7z"/>
		<linearGradient id="SVGID_2_" gradientUnits="userSpaceOnUse" x1="10.7917" y1="10.3296" x2="14.5312" y2="14.5415">
			<stop  offset="0" style="stop-color:#54ADFF"/>
			<stop  offset="1" style="stop-color:#3297FF"/>
		</linearGradient>
		<path class="st2" d="M15.4,11.9c0,0,0-0.1-0.1-0.1c-0.5,0-1-0.4-1-1c0-0.2,0.1-0.3,0.1-0.4c0-0.1,0-0.1,0-0.2l-0.7-0.4l0,0
			c0,0,0,0-0.1,0c-0.1,0-0.1,0-0.1,0.1c0,0-0.4,0.4-0.8,0.4c-0.4,0-0.7-0.4-0.8-0.4c0,0-0.1-0.1-0.1-0.1c0,0,0,0-0.1,0l-0.8,0.4l0,0
			c-0.1,0-0.1,0.1,0,0.2c0,0,0.1,0.2,0.1,0.4c0,0.6-0.4,1-1,1h0c0,0,0,0-0.1,0.1c0,0.2-0.1,0.4-0.1,0.6c0,0.2,0,0.5,0.1,0.6
			c0,0.1,0.1,0.1,0.1,0.1h0c0.5,0,1,0.4,1,1c0,0.2-0.1,0.3-0.1,0.4c0,0.1,0,0.1,0,0.2l0.7,0.4l0,0c0,0,0,0,0.1,0
			c0.1,0,0.1,0,0.1-0.1c0,0,0.4-0.4,0.8-0.4c0.4,0,0.7,0.4,0.8,0.4c0,0,0.1,0.1,0.1,0.1c0,0,0,0,0.1,0l0.8-0.4l0,0
			c0.1,0,0.1-0.1,0.1-0.2c0,0-0.1-0.2-0.1-0.4c0-0.6,0.4-1,1-1c0,0,0.1-0.1,0.1-0.1c0-0.1,0.1-0.4,0.1-0.6
			C15.5,12.3,15.5,12,15.4,11.9z M12.6,13.2L12.6,13.2c-0.4,0-0.8-0.4-0.8-0.8s0.4-0.8,0.8-0.8s0.8,0.4,0.8,0.8
			C13.4,12.8,13.1,13.2,12.6,13.2z"/>
	</g>
</g>
</svg>
