<?xml version="1.0" encoding="utf-8"?>
<!-- Generator: Adobe Illustrator 22.0.0, SVG Export Plug-In . SVG Version: 6.00 Build 0)  -->
<svg version="1.1" id="图层_1" xmlns="http://www.w3.org/2000/svg" xmlns:xlink="http://www.w3.org/1999/xlink" x="0px" y="0px"
	 viewBox="0 0 16 16" style="enable-background:new 0 0 16 16;" xml:space="preserve">
<style type="text/css">
	.st0{opacity:0;fill:#FFFFFF;fill-opacity:0;}
	.st1{fill:url(#形状结合_1_);}
</style>
<title>组icon</title>
<desc>Created with Sketch.</desc>
<g>
	<rect y="0" class="st0" width="16" height="16"/>
	<g id="页面-1">
		<g id="教育局通讯录-标签-icon不同样式备份" transform="translate(-462.000000, -357.000000)">
			<g id="编组-7" transform="translate(405.000000, 190.000000)">
				<g id="编组" transform="translate(24.000000, 128.000000)">
					<g id="部门_x2F_组icon-copy-2备份-14" transform="translate(33.000000, 38.000000)">
						
							<linearGradient id="形状结合_1_" gradientUnits="userSpaceOnUse" x1="-580.6724" y1="44.6546" x2="-580.0588" y2="45.3534" gradientTransform="matrix(15.0795 0 0 14.0193 8757.4482 -621.0005)">
							<stop  offset="0" style="stop-color:#54ADFF"/>
							<stop  offset="1" style="stop-color:#3297FF"/>
						</linearGradient>
						<path id="形状结合" class="st1" d="M13.3,7.9c1.2,0,2.3,1,2.3,2.3c0,1-0.7,1.9-1.7,2.2l0,0V14h0.8v1.2h-0.8V16h-1.2v-3.7
							c-1-0.3-1.7-1.1-1.7-2.2C11,8.9,12,7.9,13.3,7.9z M9.8,10.6c0.1,0,0.2,0,0.3,0c0.1,1,0.8,1.9,1.6,2.4l0,0v3H1
							c-0.3,0-0.5-0.2-0.5-0.5c0-2.7,2.1-4.9,4.7-4.9l0,0H9.8z M13.3,9.1c-0.6,0-1.1,0.5-1.1,1.1s0.5,1.1,1.1,1.1s1.1-0.5,1.1-1.1
							C14.3,9.6,13.9,9.1,13.3,9.1z M7.5,2c2.1,0,3.8,1.7,3.8,3.8S9.5,9.5,7.5,9.5S3.7,7.8,3.7,5.8C3.7,3.7,5.4,2,7.5,2z"/>
					</g>
				</g>
			</g>
		</g>
	</g>
</g>
</svg>
