<svg xmlns="http://www.w3.org/2000/svg" viewBox="0 0 497.419 303.354"><g id="图层_2" data-name="图层 2"><g id="图层_1-2" data-name="图层 1"><circle cx="151.677" cy="151.677" r="74.434" style="fill:#fb0"/><rect x="146.058" width="14.514" height="50.56" rx="7.257" transform="translate(306.63 50.56) rotate(-180)" style="fill:#fb0"/><rect x="146.058" y="252.794" width="14.514" height="50.56" rx="7.257" transform="translate(306.63 556.147) rotate(-180)" style="fill:#fb0"/><rect x="82.64" y="16.115" width="14.514" height="50.56" rx="7.257" transform="translate(188.447 32.296) rotate(150)" style="fill:#fb0"/><rect x="209.037" y="235.041" width="14.514" height="50.56" rx="7.257" transform="translate(533.77 377.619) rotate(150)" style="fill:#fb0"/><rect x="35.776" y="61.781" width="14.514" height="50.56" rx="7.257" transform="translate(139.946 93.323) rotate(120)" style="fill:#fb0"/><rect x="254.702" y="188.177" width="14.514" height="50.56" rx="7.257" transform="translate(577.797 93.323) rotate(120)" style="fill:#fb0"/><rect x="18.023" y="124.76" width="14.514" height="50.56" rx="7.257" transform="translate(175.319 124.76) rotate(90)" style="fill:#fb0"/><rect x="270.817" y="124.76" width="14.514" height="50.56" rx="7.257" transform="translate(428.114 -128.034) rotate(90)" style="fill:#fb0"/><rect x="34.138" y="188.178" width="14.514" height="50.56" rx="7.257" transform="translate(205.557 70.88) rotate(60)" style="fill:#fb0"/><rect x="253.064" y="61.781" width="14.514" height="50.56" rx="7.257" transform="translate(205.558 -181.914) rotate(60)" style="fill:#fb0"/><rect x="79.803" y="235.042" width="14.514" height="50.56" rx="7.257" transform="translate(141.825 -8.653) rotate(30)" style="fill:#fb0"/><rect x="206.2" y="16.116" width="14.514" height="50.56" rx="7.257" transform="translate(49.296 -101.183) rotate(30)" style="fill:#fb0"/><path d="M408.609,138.468c-22.026,0-33.149-5.25-43.906-10.327-9.833-4.642-19.121-9.025-38.1-9.025a6.807,6.807,0,0,1,0-13.614c22.027,0,33.151,5.251,43.908,10.328,9.833,4.641,19.121,9.025,38.095,9.025s28.263-4.384,38.1-9.025c10.757-5.077,21.881-10.328,43.907-10.328a6.807,6.807,0,0,1,0,13.614c-18.975,0-28.264,4.383-38.1,9.025C441.759,133.218,430.636,138.468,408.609,138.468Z" style="fill:#ff7f63"/><path d="M408.609,79.085c-22.026,0-33.149-5.25-43.906-10.327-9.833-4.641-19.121-9.025-38.1-9.025a6.807,6.807,0,0,1,0-13.613c22.027,0,33.151,5.25,43.908,10.327,9.833,4.641,19.121,9.025,38.095,9.025s28.263-4.384,38.1-9.025c10.757-5.077,21.881-10.327,43.907-10.327a6.807,6.807,0,1,1,0,13.613c-18.975,0-28.264,4.384-38.1,9.025C441.759,73.835,430.636,79.085,408.609,79.085Z" style="fill:#ff7f63"/><path d="M408.609,197.851c-22.026,0-33.149-5.25-43.906-10.327-9.833-4.642-19.121-9.026-38.1-9.026a6.807,6.807,0,0,1,0-13.613c22.027,0,33.151,5.251,43.908,10.328,9.833,4.641,19.121,9.025,38.095,9.025s28.263-4.384,38.1-9.025c10.757-5.077,21.881-10.328,43.907-10.328a6.807,6.807,0,1,1,0,13.613c-18.975,0-28.264,4.384-38.1,9.026C441.759,192.6,430.636,197.851,408.609,197.851Z" style="fill:#ff7f63"/><path d="M408.609,257.234c-22.026,0-33.149-5.25-43.906-10.327-9.833-4.642-19.121-9.026-38.1-9.026a6.807,6.807,0,0,1,0-13.613c22.027,0,33.151,5.25,43.908,10.328,9.833,4.641,19.121,9.025,38.095,9.025s28.263-4.384,38.1-9.025c10.757-5.078,21.881-10.328,43.907-10.328a6.807,6.807,0,1,1,0,13.613c-18.975,0-28.264,4.384-38.1,9.026C441.759,251.984,430.636,257.234,408.609,257.234Z" style="fill:#ff7f63"/></g></g></svg>