<?xml version="1.0" encoding="UTF-8"?>
<!DOCTYPE svg PUBLIC "-//W3C//DTD SVG 1.1//EN" "http://www.w3.org/Graphics/SVG/1.1/DTD/svg11.dtd">
<svg xmlns="http://www.w3.org/2000/svg" version="1.1" width="480px" height="133px" style="shape-rendering:geometricPrecision; text-rendering:geometricPrecision; image-rendering:optimizeQuality; fill-rule:evenodd; clip-rule:evenodd" xmlns:xlink="http://www.w3.org/1999/xlink">
<g><path style="opacity:0.302" fill="#fecd47" d="M -0.5,0.5 C -0.5,0.166667 -0.5,-0.166667 -0.5,-0.5C 4.16667,-0.5 8.83333,-0.5 13.5,-0.5C 14.1284,2.95488 16.1284,4.12154 19.5,3C 20.8228,2.18405 21.4894,1.01739 21.5,-0.5C 41.1667,-0.5 60.8333,-0.5 80.5,-0.5C 82.6244,3.31714 84.9577,3.31714 87.5,-0.5C 107.5,-0.5 127.5,-0.5 147.5,-0.5C 147.5,0.166667 147.5,0.833333 147.5,1.5C 150.287,4.29615 152.287,3.62948 153.5,-0.5C 173.5,-0.5 193.5,-0.5 213.5,-0.5C 215.241,3.39584 217.241,3.39584 219.5,-0.5C 239.5,-0.5 259.5,-0.5 279.5,-0.5C 281.241,3.39584 283.241,3.39584 285.5,-0.5C 305.5,-0.5 325.5,-0.5 345.5,-0.5C 347.241,3.39584 349.241,3.39584 351.5,-0.5C 371.5,-0.5 391.5,-0.5 411.5,-0.5C 411.418,1.25169 412.251,2.25169 414,2.5C 415.749,2.25169 416.582,1.25169 416.5,-0.5C 436.833,-0.5 457.167,-0.5 477.5,-0.5C 477.5,0.833333 478.167,1.5 479.5,1.5C 479.5,1.83333 479.5,2.16667 479.5,2.5C 477.442,4.92658 475.609,7.59324 474,10.5C 473.832,16.4955 473.998,22.4955 474.5,28.5C 470.194,30.2692 469.361,33.2692 472,37.5C 472.816,38.8228 473.983,39.4894 475.5,39.5C 472.871,42.6306 470.038,45.6306 467,48.5C 467.401,56.6741 468.901,64.6741 471.5,72.5C 471.337,74.8568 471.503,77.1902 472,79.5C 472.708,80.3805 473.542,81.0472 474.5,81.5C 471.979,86.7073 469.313,91.8739 466.5,97C 468.317,101.636 470.651,105.97 473.5,110C 469.933,112.945 466.6,116.111 463.5,119.5C 467.522,123.854 471.522,128.187 475.5,132.5C 322.5,132.5 169.5,132.5 16.5,132.5C 12.6916,130.328 8.6916,128.328 4.5,126.5C 3.38746,122.507 3.38746,118.507 4.5,114.5C 6.09352,117.061 7.09352,120.061 7.5,123.5C 9.79006,124.467 11.7901,125.8 13.5,127.5C 17.4114,129.185 20.7447,128.518 23.5,125.5C 26.8044,124.856 28.1378,122.856 27.5,119.5C 27.8342,116.812 27.1675,114.479 25.5,112.5C 21.8792,112.247 18.2125,112.247 14.5,112.5C 12.0298,111.122 9.69646,111.455 7.5,113.5C 6.59603,112.791 6.26269,111.791 6.5,110.5C 7.59554,105.62 8.92888,100.786 10.5,96C 8.30045,91.7685 5.96712,87.6018 3.5,83.5C 4.5213,81.812 5.85463,80.4787 7.5,79.5C 10.0986,81.4793 12.7653,83.4793 15.5,85.5C 18.1131,86.9927 20.1131,86.3261 21.5,83.5C 27.2402,80.3858 28.5735,76.0525 25.5,70.5C 24.8478,69.2749 23.6811,68.6083 22,68.5C 20.1867,68.8266 18.52,69.4933 17,70.5C 15.2341,69.7665 13.4008,69.4332 11.5,69.5C 8.33158,63.8208 5.66491,57.8208 3.5,51.5C 4.35215,47.7548 5.35215,44.0881 6.5,40.5C 7.42317,39.6971 8.42317,39.5304 9.5,40C 10.1667,41.6667 10.8333,43.3333 11.5,45C 14.1667,45.6667 16.8333,45.6667 19.5,45C 20.8228,44.1841 21.4894,43.0174 21.5,41.5C 24.3667,41.6308 26.0334,40.2974 26.5,37.5C 27.2186,35.2362 27.552,32.9029 27.5,30.5C 27.5858,29.5041 27.2524,28.6708 26.5,28C 22.9111,27.9632 19.5778,27.1299 16.5,25.5C 13.3501,27.1895 10.6835,26.8561 8.5,24.5C 8.96124,22.4496 9.62791,20.4496 10.5,18.5C 5.27515,13.371 1.60848,7.37099 -0.5,0.5 Z"/></g>
<g><path style="opacity:0.302" fill="#fff7d5" d="M 80.5,-0.5 C 82.8333,-0.5 85.1667,-0.5 87.5,-0.5C 84.9577,3.31714 82.6244,3.31714 80.5,-0.5 Z"/></g>
<g><path style="opacity:0.302" fill="#fffade" d="M 147.5,-0.5 C 149.167,-0.5 150.833,-0.5 152.5,-0.5C 151.501,2.17414 149.834,2.84081 147.5,1.5C 147.5,0.833333 147.5,0.166667 147.5,-0.5 Z"/></g>
<g><path style="opacity:0.302" fill="#fff8d4" d="M 213.5,-0.5 C 215.5,-0.5 217.5,-0.5 219.5,-0.5C 217.241,3.39584 215.241,3.39584 213.5,-0.5 Z"/></g>
<g><path style="opacity:0.302" fill="#fffacc" d="M 279.5,-0.5 C 281.5,-0.5 283.5,-0.5 285.5,-0.5C 283.241,3.39584 281.241,3.39584 279.5,-0.5 Z"/></g>
<g><path style="opacity:0.302" fill="#fffbd5" d="M 345.5,-0.5 C 347.5,-0.5 349.5,-0.5 351.5,-0.5C 349.241,3.39584 347.241,3.39584 345.5,-0.5 Z"/></g>
<g><path style="opacity:0.302" fill="#fffbd6" d="M 411.5,-0.5 C 413.167,-0.5 414.833,-0.5 416.5,-0.5C 416.582,1.25169 415.749,2.25169 414,2.5C 412.251,2.25169 411.418,1.25169 411.5,-0.5 Z"/></g>
<g><path style="opacity:0.282" fill="#fff2d5" d="M 477.5,-0.5 C 478.167,-0.5 478.833,-0.5 479.5,-0.5C 479.5,0.166667 479.5,0.833333 479.5,1.5C 478.167,1.5 477.5,0.833333 477.5,-0.5 Z"/></g>
<g><path style="opacity:0.302" fill="#f8d672" d="M 13.5,-0.5 C 13.8333,-0.5 14.1667,-0.5 14.5,-0.5C 16.1667,2.16667 17.8333,2.16667 19.5,-0.5C 20.1667,-0.5 20.8333,-0.5 21.5,-0.5C 21.4894,1.01739 20.8228,2.18405 19.5,3C 16.1284,4.12154 14.1284,2.95488 13.5,-0.5 Z"/></g>
<g><path style="opacity:0.227" fill="#fffcea" d="M 14.5,-0.5 C 16.1667,-0.5 17.8333,-0.5 19.5,-0.5C 17.8333,2.16667 16.1667,2.16667 14.5,-0.5 Z"/></g>
<g><path style="opacity:0.302" fill="#f7cc6c" d="M 152.5,-0.5 C 152.833,-0.5 153.167,-0.5 153.5,-0.5C 152.287,3.62948 150.287,4.29615 147.5,1.5C 149.834,2.84081 151.501,2.17414 152.5,-0.5 Z"/></g>
<g><path style="opacity:0.302" fill="#facf5a" d="M 384.5,21.5 C 386.36,20.0613 388.027,18.3947 389.5,16.5C 393.295,9.7807 391.295,6.94736 383.5,8C 382.667,8.83333 381.833,9.66667 381,10.5C 378.384,7.42169 375.218,6.75502 371.5,8.5C 372.514,7.23532 374.014,6.56865 376,6.5C 377.764,6.54449 379.431,6.87782 381,7.5C 384.007,3.87043 387.84,2.70377 392.5,4C 393.022,4.5613 393.355,5.22797 393.5,6C 392.796,9.12752 392.296,12.2942 392,15.5C 390.52,18.8172 388.02,20.8172 384.5,21.5 Z"/></g>
<g><path style="opacity:0.302" fill="#facf61" d="M 126.5,15.5 C 126.795,13.2646 126.461,11.2646 125.5,9.5C 124.848,8.27493 123.681,7.60826 122,7.5C 119.558,7.48233 117.392,8.14899 115.5,9.5C 115.389,8.88258 115.056,8.38258 114.5,8C 108.082,6.39291 105.749,8.89291 107.5,15.5C 106.183,12.7699 106.183,9.93653 107.5,7C 114.289,6.38671 120.955,5.22005 127.5,3.5C 127.817,7.70159 127.483,11.7016 126.5,15.5 Z"/></g>
<g><path style="opacity:0.302" fill="#fbd579" d="M 181.5,8.5 C 174.41,5.75489 171.91,8.08823 174,15.5C 174.708,16.3805 175.542,17.0472 176.5,17.5C 177.5,18.8333 178.5,20.1667 179.5,21.5C 173.255,18.9647 171.088,14.298 173,7.5C 174.4,6.88407 175.9,6.55074 177.5,6.5C 179.333,6.58544 180.666,7.2521 181.5,8.5 Z"/></g>
<g><path style="opacity:0.302" fill="#f3d872" d="M 190.5,7.5 C 188.801,7.33982 187.134,7.50649 185.5,8C 184.529,9.48131 183.196,10.3146 181.5,10.5C 181.5,9.83333 181.5,9.16667 181.5,8.5C 183.177,7.58758 185.011,6.92091 187,6.5C 188.385,6.51428 189.551,6.84761 190.5,7.5 Z"/></g>
<g><path style="opacity:0.302" fill="#f7d163" d="M 325.5,13.5 C 325.822,11.2776 325.155,9.44425 323.5,8C 320.739,7.27817 318.073,7.44484 315.5,8.5C 316.514,7.23532 318.014,6.56865 320,6.5C 325.666,6.09402 327.499,8.42735 325.5,13.5 Z"/></g>
<g><path style="opacity:0.302" fill="#fad069" d="M 41.5,7.5 C 45.0171,6.37967 48.6837,6.37967 52.5,7.5C 51.5899,10.8143 50.2565,11.1477 48.5,8.5C 46.3926,7.53178 44.0593,7.19845 41.5,7.5 Z"/></g>
<g><path style="opacity:0.302" fill="#fdf2c1" d="M 325.5,13.5 C 325.5,13.8333 325.5,14.1667 325.5,14.5C 324.272,15.3065 323.272,16.3065 322.5,17.5C 322.477,15.4004 323.144,13.5671 324.5,12C 323.202,8.79481 320.868,7.79481 317.5,9C 316.347,10.883 314.681,11.7163 312.5,11.5C 312.5,10.5 312.5,9.5 312.5,8.5C 312.833,8.5 313.167,8.5 313.5,8.5C 314.167,9.83333 314.833,9.83333 315.5,8.5C 318.073,7.44484 320.739,7.27817 323.5,8C 325.155,9.44425 325.822,11.2776 325.5,13.5 Z"/></g>
<g><path style="opacity:0.302" fill="#feface" d="M 445.5,8.5 C 439.102,7.22609 437.102,9.55942 439.5,15.5C 438.883,15.3893 438.383,15.056 438,14.5C 437.505,12.5273 437.338,10.5273 437.5,8.5C 440.272,7.23293 442.939,7.23293 445.5,8.5 Z"/></g>
<g><path style="opacity:0.302" fill="#fdfcfa" d="M 48.5,8.5 C 48.5,9.83333 48.5,11.1667 48.5,12.5C 49.8333,12.5 51.1667,12.5 52.5,12.5C 52.147,10.3652 52.9803,9.03187 55,8.5C 59.1959,9.93544 60.3626,12.6021 58.5,16.5C 56.8061,18.8606 54.8061,20.8606 52.5,22.5C 51.448,22.6495 50.448,22.4828 49.5,22C 47.8863,19.8733 45.8863,18.3733 43.5,17.5C 42.701,14.5701 42.3677,11.5701 42.5,8.5C 44.5,8.5 46.5,8.5 48.5,8.5 Z"/></g>
<g><path style="opacity:0.302" fill="#fdfdf9" d="M 115.5,9.5 C 115.369,10.3764 115.702,11.0431 116.5,11.5C 118.98,8.46331 121.98,7.79665 125.5,9.5C 125.894,12.8571 124.561,15.1905 121.5,16.5C 120.614,17.325 120.281,18.325 120.5,19.5C 120.167,20.1667 119.833,20.8333 119.5,21.5C 117.94,21.4809 116.44,21.1476 115,20.5C 113.243,18.2354 111.076,16.5687 108.5,15.5C 108.167,15.5 107.833,15.5 107.5,15.5C 105.749,8.89291 108.082,6.39291 114.5,8C 115.056,8.38258 115.389,8.88258 115.5,9.5 Z"/></g>
<g><path style="opacity:0.302" fill="#fdf2c0" d="M 125.5,9.5 C 121.98,7.79665 118.98,8.46331 116.5,11.5C 115.702,11.0431 115.369,10.3764 115.5,9.5C 117.392,8.14899 119.558,7.48233 122,7.5C 123.681,7.60826 124.848,8.27493 125.5,9.5 Z"/></g>
<g><path style="opacity:0.302" fill="#f6d267" d="M 257.5,7.5 C 255.5,7.5 253.5,7.5 251.5,7.5C 249.5,8.83333 247.5,8.83333 245.5,7.5C 243.533,7.26057 241.699,7.59391 240,8.5C 239.204,11.0385 239.371,13.3718 240.5,15.5C 241.5,16.8333 242.5,18.1667 243.5,19.5C 241.629,19.1412 240.129,18.1412 239,16.5C 238.216,13.2397 238.383,10.0731 239.5,7C 245.681,6.18079 251.681,6.34745 257.5,7.5 Z"/></g>
<g><path style="opacity:0.302" fill="#fefdf7" d="M 257.5,15.5 C 255.522,18.6695 252.855,21.1695 249.5,23C 247.934,23.2997 246.601,22.7997 245.5,21.5C 245.167,20.5 244.5,19.8333 243.5,19.5C 242.5,18.1667 241.5,16.8333 240.5,15.5C 240.338,13.4727 240.505,11.4727 241,9.5C 242.011,8.66337 243.178,8.33003 244.5,8.5C 244.5,9.5 244.5,10.5 244.5,11.5C 246.527,11.6621 248.527,11.4955 250.5,11C 255.701,7.2789 258.035,8.7789 257.5,15.5 Z"/></g>
<g><path style="opacity:0.302" fill="#f6d571" d="M 313.5,8.5 C 313.167,8.5 312.833,8.5 312.5,8.5C 310.5,7.16667 308.5,7.16667 306.5,8.5C 305.549,9.91866 305.216,11.5853 305.5,13.5C 304.189,11.4402 304.189,9.27352 305.5,7C 306.833,6.83333 308.167,6.66667 309.5,6.5C 311.333,6.58544 312.666,7.2521 313.5,8.5 Z"/></g>
<g><path style="opacity:0.302" fill="#fefcf9" d="M 312.5,8.5 C 312.5,9.5 312.5,10.5 312.5,11.5C 314.681,11.7163 316.347,10.883 317.5,9C 320.868,7.79481 323.202,8.79481 324.5,12C 323.144,13.5671 322.477,15.4004 322.5,17.5C 320.97,18.2112 319.637,19.2112 318.5,20.5C 314.526,21.8565 311.193,20.8565 308.5,17.5C 308.244,14.4021 307.578,11.4021 306.5,8.5C 308.5,7.16667 310.5,7.16667 312.5,8.5 Z"/></g>
<g><path style="opacity:0.302" fill="#fdfcfb" d="M 388.5,9.5 C 388.662,11.5273 388.495,13.5273 388,15.5C 386.869,14.3961 386.035,14.7295 385.5,16.5C 386.609,18.2141 385.942,18.8808 383.5,18.5C 383.404,13.8897 382.404,13.5564 380.5,17.5C 379.833,17.1667 379.167,16.8333 378.5,16.5C 377.735,17.6119 376.735,18.2786 375.5,18.5C 373.273,17.5994 372.273,15.9328 372.5,13.5C 372.015,8.84146 373.848,7.50813 378,9.5C 378.483,10.448 378.649,11.448 378.5,12.5C 381.727,12.2201 384.393,10.8868 386.5,8.5C 387.416,8.54272 388.083,8.87605 388.5,9.5 Z"/></g>
<g><path style="opacity:0.302" fill="#fdfcf7" d="M 445.5,8.5 C 446.209,9.40397 447.209,9.73731 448.5,9.5C 451.167,8.16667 453.833,8.16667 456.5,9.5C 455.104,13.9068 453.104,17.9068 450.5,21.5C 449.162,23.1128 447.495,23.6128 445.5,23C 442.882,20.8943 440.882,18.3943 439.5,15.5C 437.102,9.55942 439.102,7.22609 445.5,8.5 Z"/></g>
<g><path style="opacity:0.302" fill="#fffacb" d="M 456.5,9.5 C 453.833,8.16667 451.167,8.16667 448.5,9.5C 449.312,8.00691 450.645,7.34024 452.5,7.5C 454.355,7.34024 455.688,8.00691 456.5,9.5 Z"/></g>
<g><path style="opacity:0.302" fill="#fefbdf" d="M 245.5,7.5 C 247.5,11.5 249.5,11.5 251.5,7.5C 253.5,7.5 255.5,7.5 257.5,7.5C 257.5,7.83333 257.5,8.16667 257.5,8.5C 258.756,10.941 258.756,13.2743 257.5,15.5C 258.035,8.7789 255.701,7.2789 250.5,11C 248.527,11.4955 246.527,11.6621 244.5,11.5C 244.5,10.5 244.5,9.5 244.5,8.5C 243.178,8.33003 242.011,8.66337 241,9.5C 240.505,11.4727 240.338,13.4727 240.5,15.5C 239.371,13.3718 239.204,11.0385 240,8.5C 241.699,7.59391 243.533,7.26057 245.5,7.5 Z"/></g>
<g><path style="opacity:0.302" fill="#f1de8d" d="M 245.5,7.5 C 247.5,8.83333 249.5,8.83333 251.5,7.5C 249.5,11.5 247.5,11.5 245.5,7.5 Z"/></g>
<g><path style="opacity:0.302" fill="#fff9d1" d="M 41.5,7.5 C 44.0593,7.19845 46.3926,7.53178 48.5,8.5C 46.5,8.5 44.5,8.5 42.5,8.5C 42.3677,11.5701 42.701,14.5701 43.5,17.5C 40.664,14.6539 39.9974,11.3206 41.5,7.5 Z"/></g>
<g><path style="opacity:0.302" fill="#fffde3" d="M 306.5,8.5 C 307.578,11.4021 308.244,14.4021 308.5,17.5C 306.738,16.7377 305.738,15.4044 305.5,13.5C 305.216,11.5853 305.549,9.91866 306.5,8.5 Z"/></g>
<g><path style="opacity:0.302" fill="#fef8d4" d="M 389.5,16.5 C 389.802,13.9407 389.468,11.6074 388.5,9.5C 388.083,8.87605 387.416,8.54272 386.5,8.5C 384.393,10.8868 381.727,12.2201 378.5,12.5C 378.649,11.448 378.483,10.448 378,9.5C 373.848,7.50813 372.015,8.84146 372.5,13.5C 372.167,13.5 371.833,13.5 371.5,13.5C 371.5,11.8333 371.5,10.1667 371.5,8.5C 375.218,6.75502 378.384,7.42169 381,10.5C 381.833,9.66667 382.667,8.83333 383.5,8C 391.295,6.94736 393.295,9.7807 389.5,16.5 Z"/></g>
<g><path style="opacity:0.302" fill="#fefadb" d="M 52.5,7.5 C 54.1667,7.5 55.8333,7.5 57.5,7.5C 59.9844,9.54517 60.9844,12.2118 60.5,15.5C 59.8333,15.8333 59.1667,16.1667 58.5,16.5C 60.3626,12.6021 59.1959,9.93544 55,8.5C 52.9803,9.03187 52.147,10.3652 52.5,12.5C 51.1667,12.5 49.8333,12.5 48.5,12.5C 48.5,11.1667 48.5,9.83333 48.5,8.5C 50.2565,11.1477 51.5899,10.8143 52.5,7.5 Z"/></g>
<g><path style="opacity:0.302" fill="#fffadd" d="M 190.5,7.5 C 193.517,12.0621 192.851,16.0621 188.5,19.5C 186.966,17.6579 187.3,16.3246 189.5,15.5C 190.474,13.2573 190.808,10.924 190.5,8.5C 189.127,8.34332 187.793,8.50999 186.5,9C 185.123,11.3012 183.456,11.8012 181.5,10.5C 183.196,10.3146 184.529,9.48131 185.5,8C 187.134,7.50649 188.801,7.33982 190.5,7.5 Z"/></g>
<g><path style="opacity:0.302" fill="#f0d577" d="M 57.5,7.5 C 59.0174,7.51056 60.1841,8.17723 61,9.5C 61.7891,11.7116 61.6225,13.7116 60.5,15.5C 60.9844,12.2118 59.9844,9.54517 57.5,7.5 Z"/></g>
<g><path style="opacity:0.302" fill="#fffcdc" d="M 181.5,8.5 C 181.5,9.16667 181.5,9.83333 181.5,10.5C 179.581,8.47761 177.414,8.14427 175,9.5C 174.288,12.4376 174.788,15.1043 176.5,17.5C 175.542,17.0472 174.708,16.3805 174,15.5C 171.91,8.08823 174.41,5.75489 181.5,8.5 Z"/></g>
<g><path style="opacity:0.302" fill="#fcfdee" d="M 388.5,9.5 C 389.468,11.6074 389.802,13.9407 389.5,16.5C 388.027,18.3947 386.36,20.0613 384.5,21.5C 383.469,22.355 382.303,23.0217 381,23.5C 379.019,22.3498 377.186,21.0165 375.5,19.5C 375.5,19.1667 375.5,18.8333 375.5,18.5C 376.735,18.2786 377.735,17.6119 378.5,16.5C 379.167,16.8333 379.833,17.1667 380.5,17.5C 382.404,13.5564 383.404,13.8897 383.5,18.5C 385.942,18.8808 386.609,18.2141 385.5,16.5C 386.035,14.7295 386.869,14.3961 388,15.5C 388.495,13.5273 388.662,11.5273 388.5,9.5 Z"/></g>
<g><path style="opacity:0.302" fill="#fdf8d4" d="M 456.5,9.5 C 457.147,10.2739 457.48,11.2739 457.5,12.5C 457.014,14.3042 456.347,15.9709 455.5,17.5C 453.833,18.8333 452.167,20.1667 450.5,21.5C 453.104,17.9068 455.104,13.9068 456.5,9.5 Z"/></g>
<g><path style="opacity:0.302" fill="#fffcd8" d="M 108.5,15.5 C 111.076,16.5687 113.243,18.2354 115,20.5C 116.44,21.1476 117.94,21.4809 119.5,21.5C 119.5,21.8333 119.5,22.1667 119.5,22.5C 118.153,23.0283 116.819,23.195 115.5,23C 112.598,21.0272 110.264,18.5272 108.5,15.5 Z"/></g>
<g><path style="opacity:0.302" fill="#fffcde" d="M 125.5,9.5 C 126.461,11.2646 126.795,13.2646 126.5,15.5C 126.167,15.5 125.833,15.5 125.5,15.5C 124.24,17.3671 122.573,18.7005 120.5,19.5C 120.281,18.325 120.614,17.325 121.5,16.5C 124.561,15.1905 125.894,12.8571 125.5,9.5 Z"/></g>
<g><path style="opacity:0.302" fill="#fdfdf6" d="M 181.5,10.5 C 183.456,11.8012 185.123,11.3012 186.5,9C 187.793,8.50999 189.127,8.34332 190.5,8.5C 190.808,10.924 190.474,13.2573 189.5,15.5C 187.3,16.3246 186.966,17.6579 188.5,19.5C 186.79,21.1996 184.79,22.5329 182.5,23.5C 181.482,22.8075 180.482,22.1408 179.5,21.5C 178.5,20.1667 177.5,18.8333 176.5,17.5C 174.788,15.1043 174.288,12.4376 175,9.5C 177.414,8.14427 179.581,8.47761 181.5,10.5 Z"/></g>
<g><path style="opacity:0.302" fill="#f5d87b" d="M 371.5,13.5 C 371.833,13.5 372.167,13.5 372.5,13.5C 372.273,15.9328 373.273,17.5994 375.5,18.5C 375.5,18.8333 375.5,19.1667 375.5,19.5C 372.224,18.8784 370.891,16.8784 371.5,13.5 Z"/></g>
<g><path style="opacity:0.302" fill="#fef6c3" d="M 43.5,17.5 C 45.8863,18.3733 47.8863,19.8733 49.5,22C 50.448,22.4828 51.448,22.6495 52.5,22.5C 50.9504,23.7199 49.2837,23.7199 47.5,22.5C 46.1667,20.8333 44.8333,19.1667 43.5,17.5 Z"/></g>
<g><path style="opacity:0.302" fill="#f8d259" d="M 52.5,7.5 C 55.676,6.64066 58.8427,6.30733 62,6.5C 65.3453,15.0429 62.5119,20.7096 53.5,23.5C 52.5,23.8333 51.5,24.1667 50.5,24.5C 48.9704,24.3601 47.9704,23.6935 47.5,22.5C 49.2837,23.7199 50.9504,23.7199 52.5,22.5C 54.8061,20.8606 56.8061,18.8606 58.5,16.5C 59.1667,16.1667 59.8333,15.8333 60.5,15.5C 61.6225,13.7116 61.7891,11.7116 61,9.5C 60.1841,8.17723 59.0174,7.51056 57.5,7.5C 55.8333,7.5 54.1667,7.5 52.5,7.5 Z"/></g>
<g><path style="opacity:0.302" fill="#fae493" d="M 125.5,15.5 C 124.932,19.0674 122.932,21.4007 119.5,22.5C 119.5,22.1667 119.5,21.8333 119.5,21.5C 119.833,20.8333 120.167,20.1667 120.5,19.5C 122.573,18.7005 124.24,17.3671 125.5,15.5 Z"/></g>
<g><path style="opacity:0.302" fill="#fad05d" d="M 257.5,8.5 C 259.171,11.608 260.171,15.108 260.5,19C 259.898,24.8975 257.732,25.7308 254,21.5C 252.28,22.723 250.447,23.723 248.5,24.5C 246.484,24.4841 245.484,23.4841 245.5,21.5C 246.601,22.7997 247.934,23.2997 249.5,23C 252.855,21.1695 255.522,18.6695 257.5,15.5C 258.756,13.2743 258.756,10.941 257.5,8.5 Z"/></g>
<g><path style="opacity:0.302" fill="#fbce5a" d="M 437.5,8.5 C 437.338,10.5273 437.505,12.5273 438,14.5C 438.383,15.056 438.883,15.3893 439.5,15.5C 440.882,18.3943 442.882,20.8943 445.5,23C 447.495,23.6128 449.162,23.1128 450.5,21.5C 452.167,20.1667 453.833,18.8333 455.5,17.5C 454.107,21.2094 451.441,23.5427 447.5,24.5C 443.486,23.5143 439.486,22.5143 435.5,21.5C 435.369,18.6711 436.369,17.3378 438.5,17.5C 436.368,14.5955 436.034,11.5955 437.5,8.5 Z"/></g>
<g><path style="opacity:0.302" fill="#fef8d0" d="M 308.5,17.5 C 311.193,20.8565 314.526,21.8565 318.5,20.5C 317.833,21.5 317.167,22.5 316.5,23.5C 312.689,22.9373 310.023,20.9373 308.5,17.5 Z"/></g>
<g><path style="opacity:0.302" fill="#f0d86e" d="M 325.5,14.5 C 324.126,19.0393 321.126,22.0393 316.5,23.5C 317.167,22.5 317.833,21.5 318.5,20.5C 319.637,19.2112 320.97,18.2112 322.5,17.5C 323.272,16.3065 324.272,15.3065 325.5,14.5 Z"/></g>
<g><path style="opacity:0.302" fill="#fad269" d="M 357.5,30.5 C 355.304,28.4554 352.97,28.1221 350.5,29.5C 348.837,32.0524 347.17,31.8857 345.5,29C 344.207,28.51 342.873,28.3433 341.5,28.5C 346.732,27.6499 352.065,26.6499 357.5,25.5C 360.076,26.8834 359.742,27.7167 356.5,28C 357.252,28.6708 357.586,29.5041 357.5,30.5 Z"/></g>
<g><path style="opacity:0.302" fill="#f8d167" d="M 8.5,24.5 C 10.6835,26.8561 13.3501,27.1895 16.5,25.5C 19.5778,27.1299 22.9111,27.9632 26.5,28C 27.2524,28.6708 27.5858,29.5041 27.5,30.5C 24.2,27.8431 20.8666,27.8431 17.5,30.5C 14.9338,28.401 12.2672,28.0677 9.5,29.5C 8.83333,29.5 8.16667,29.5 7.5,29.5C 7.21552,27.5853 7.54885,25.9187 8.5,24.5 Z"/></g>
<g><path style="opacity:0.302" fill="#fbd060" d="M 421.5,39.5 C 423.653,36.2885 423.986,32.9552 422.5,29.5C 420.901,27.2712 418.901,26.9378 416.5,28.5C 418.635,26.631 421.302,25.9644 424.5,26.5C 424.5,30.8333 424.5,35.1667 424.5,39.5C 423.5,39.5 422.5,39.5 421.5,39.5 Z"/></g>
<g><path style="opacity:0.302" fill="#f5d373" d="M 93.5,35.5 C 94.0002,29.6706 91.3335,27.3373 85.5,28.5C 88.4236,25.7818 91.2569,26.1151 94,29.5C 94.7891,31.7116 94.6225,33.7116 93.5,35.5 Z"/></g>
<g><path style="opacity:0.302" fill="#f5d163" d="M 223.5,27.5 C 220.318,28.0303 217.318,29.0303 214.5,30.5C 214.389,29.8826 214.056,29.3826 213.5,29C 211.527,28.5045 209.527,28.3379 207.5,28.5C 208.334,27.2521 209.667,26.5854 211.5,26.5C 213.32,26.6493 214.82,27.3159 216,28.5C 218.357,26.3542 220.857,26.0209 223.5,27.5 Z"/></g>
<g><path style="opacity:0.302" fill="#fbf0b6" d="M 75.5,29.5 C 78.6678,28.5565 82.0012,28.5565 85.5,29.5C 85.1344,30.6946 84.301,31.3613 83,31.5C 80.7903,29.8891 78.2903,29.2224 75.5,29.5 Z"/></g>
<g><path style="opacity:0.302" fill="#fef4c4" d="M 158.5,30.5 C 156.194,30.0074 153.861,29.6741 151.5,29.5C 154.214,26.6424 156.548,26.9757 158.5,30.5 Z"/></g>
<g><path style="opacity:0.302" fill="#f9d378" d="M 289.5,28.5 C 286.348,27.9586 283.848,28.9586 282,31.5C 281.292,30.6195 280.458,29.9528 279.5,29.5C 279.5,29.1667 279.5,28.8333 279.5,28.5C 282.999,27.5565 286.332,27.5565 289.5,28.5 Z"/></g>
<g><path style="opacity:0.302" fill="#fffcde" d="M 350.5,29.5 C 352.97,28.1221 355.304,28.4554 357.5,30.5C 357.5,30.8333 357.5,31.1667 357.5,31.5C 357.784,33.4147 357.451,35.0813 356.5,36.5C 357.323,31.6606 355.323,29.3272 350.5,29.5 Z"/></g>
<g><path style="opacity:0.302" fill="#fff8c9" d="M 411.5,29.5 C 406.677,29.3272 404.677,31.6606 405.5,36.5C 404.203,34.3066 404.203,31.9732 405.5,29.5C 407.643,28.2463 409.643,28.2463 411.5,29.5 Z"/></g>
<g><path style="opacity:0.302" fill="#fff2c3" d="M 422.5,29.5 C 419.812,29.1658 417.479,29.8325 415.5,31.5C 415.5,30.8333 415.5,30.1667 415.5,29.5C 416.167,29.5 416.5,29.1667 416.5,28.5C 418.901,26.9378 420.901,27.2712 422.5,29.5 Z"/></g>
<g><path style="opacity:0.302" fill="#fefad3" d="M 9.5,29.5 C 12.2672,28.0677 14.9338,28.401 17.5,30.5C 20.8666,27.8431 24.2,27.8431 27.5,30.5C 27.552,32.9029 27.2186,35.2362 26.5,37.5C 25.5,38.1667 24.5,38.8333 23.5,39.5C 25.123,36.7847 25.7896,33.7847 25.5,30.5C 22.9621,30.5072 20.4621,30.8405 18,31.5C 15.4105,30.0137 12.5772,29.3471 9.5,29.5 Z"/></g>
<g><path style="opacity:0.302" fill="#fefdf8" d="M 7.5,29.5 C 8.16667,29.5 8.83333,29.5 9.5,29.5C 12.5772,29.3471 15.4105,30.0137 18,31.5C 20.4621,30.8405 22.9621,30.5072 25.5,30.5C 25.7896,33.7847 25.123,36.7847 23.5,39.5C 22.8333,40.1667 22.1667,40.8333 21.5,41.5C 20.8333,41.8333 20.1667,42.1667 19.5,42.5C 16.4188,40.441 13.0855,38.7744 9.5,37.5C 9.5,36.1667 8.83333,35.5 7.5,35.5C 7.5,33.5 7.5,31.5 7.5,29.5 Z"/></g>
<g><path style="opacity:0.302" fill="#fdfdf7" d="M 85.5,28.5 C 91.3335,27.3373 94.0002,29.6706 93.5,35.5C 91.4131,36.5846 90.0798,38.2512 89.5,40.5C 88.8333,40.5 88.5,40.8333 88.5,41.5C 87.5084,41.3284 86.8417,41.6618 86.5,42.5C 84.5328,42.7394 82.6995,42.4061 81,41.5C 79.7993,39.0905 78.1326,37.0905 76,35.5C 75.5045,33.5273 75.3379,31.5273 75.5,29.5C 78.2903,29.2224 80.7903,29.8891 83,31.5C 84.301,31.3613 85.1344,30.6946 85.5,29.5C 85.5,29.1667 85.5,28.8333 85.5,28.5 Z"/></g>
<g><path style="opacity:0.302" fill="#fdfdf5" d="M 147.5,28.5 C 147.5,28.8333 147.5,29.1667 147.5,29.5C 148.833,32.1667 150.167,32.1667 151.5,29.5C 153.861,29.6741 156.194,30.0074 158.5,30.5C 159.461,32.2646 159.795,34.2646 159.5,36.5C 158.167,37.5 156.833,38.5 155.5,39.5C 153.13,39.736 151.13,40.736 149.5,42.5C 148.583,41.8728 147.583,41.5394 146.5,41.5C 144.833,40.1667 143.167,38.8333 141.5,37.5C 138.627,30.9336 140.627,27.9336 147.5,28.5 Z"/></g>
<g><path style="opacity:0.302" fill="#f1d890" d="M 147.5,29.5 C 148.833,29.5 150.167,29.5 151.5,29.5C 150.167,32.1667 148.833,32.1667 147.5,29.5 Z"/></g>
<g><path style="opacity:0.302" fill="#fff9cc" d="M 207.5,28.5 C 209.527,28.3379 211.527,28.5045 213.5,29C 214.056,29.3826 214.389,29.8826 214.5,30.5C 208.167,28.1667 206.167,30.1667 208.5,36.5C 207.883,36.3893 207.383,36.056 207,35.5C 206.505,33.5273 206.338,31.5273 206.5,29.5C 207.167,29.5 207.5,29.1667 207.5,28.5 Z"/></g>
<g><path style="opacity:0.302" fill="#fefdfb" d="M 222.5,28.5 C 223.933,30.5582 224.6,32.8915 224.5,35.5C 221.167,35.5 219.5,37.1667 219.5,40.5C 217.167,41.8333 214.833,41.8333 212.5,40.5C 211.363,39.2112 210.03,38.2112 208.5,37.5C 208.5,37.1667 208.5,36.8333 208.5,36.5C 206.167,30.1667 208.167,28.1667 214.5,30.5C 214.811,31.4778 215.478,32.1445 216.5,32.5C 218.264,30.7224 220.264,29.3891 222.5,28.5 Z"/></g>
<g><path style="opacity:0.302" fill="#fcf1c4" d="M 223.5,27.5 C 223.5,27.8333 223.5,28.1667 223.5,28.5C 223.167,28.5 222.833,28.5 222.5,28.5C 220.264,29.3891 218.264,30.7224 216.5,32.5C 215.478,32.1445 214.811,31.4778 214.5,30.5C 217.318,29.0303 220.318,28.0303 223.5,27.5 Z"/></g>
<g><path style="opacity:0.302" fill="#fbecad" d="M 279.5,28.5 C 279.5,28.8333 279.5,29.1667 279.5,29.5C 277.585,29.2155 275.919,29.5489 274.5,30.5C 272.896,31.287 272.229,32.6203 272.5,34.5C 271.28,32.9504 271.28,31.2837 272.5,29.5C 274.696,27.4554 277.03,27.1221 279.5,28.5 Z"/></g>
<g><path style="opacity:0.302" fill="#fefdfa" d="M 290.5,30.5 C 290.5,32.1667 290.5,33.8333 290.5,35.5C 289.5,35.5 288.5,35.5 287.5,35.5C 287.833,38.5 286.5,39.8333 283.5,39.5C 283.5,40.5 283.5,41.5 283.5,42.5C 281.784,42.3713 280.117,42.038 278.5,41.5C 275.781,39.7807 273.781,37.4474 272.5,34.5C 272.229,32.6203 272.896,31.287 274.5,30.5C 275.873,30.3433 277.207,30.51 278.5,31C 277.007,32.1562 277.174,32.9896 279,33.5C 282.088,32.9208 284.755,31.5875 287,29.5C 288.138,29.9891 289.305,30.3225 290.5,30.5 Z"/></g>
<g><path style="opacity:0.302" fill="#fefdf5" d="M 341.5,28.5 C 342.873,28.3433 344.207,28.51 345.5,29C 347.17,31.8857 348.837,32.0524 350.5,29.5C 355.323,29.3272 357.323,31.6606 356.5,36.5C 355.89,37.391 355.557,38.391 355.5,39.5C 352.831,42.3919 349.497,43.7253 345.5,43.5C 343.833,41.1667 341.833,39.1667 339.5,37.5C 339.5,36.8333 339.5,36.1667 339.5,35.5C 339.166,32.812 339.832,30.4786 341.5,28.5 Z"/></g>
<g><path style="opacity:0.302" fill="#fdfdf6" d="M 411.5,29.5 C 412.605,30.6005 413.938,31.2671 415.5,31.5C 417.479,29.8325 419.812,29.1658 422.5,29.5C 423.986,32.9552 423.653,36.2885 421.5,39.5C 419.589,40.075 417.922,41.075 416.5,42.5C 414.435,42.4828 412.435,42.1495 410.5,41.5C 409.833,41.1667 409.167,40.8333 408.5,40.5C 407.5,39.1667 406.5,37.8333 405.5,36.5C 404.677,31.6606 406.677,29.3272 411.5,29.5 Z"/></g>
<g><path style="opacity:0.302" fill="#fefae3" d="M 289.5,28.5 C 289.833,29.1667 290.167,29.8333 290.5,30.5C 289.305,30.3225 288.138,29.9891 287,29.5C 284.755,31.5875 282.088,32.9208 279,33.5C 277.174,32.9896 277.007,32.1562 278.5,31C 277.207,30.51 275.873,30.3433 274.5,30.5C 275.919,29.5489 277.585,29.2155 279.5,29.5C 280.458,29.9528 281.292,30.6195 282,31.5C 283.848,28.9586 286.348,27.9586 289.5,28.5 Z"/></g>
<g><path style="opacity:0.302" fill="#fffbc3" d="M 341.5,28.5 C 339.832,30.4786 339.166,32.812 339.5,35.5C 338.539,33.7354 338.205,31.7354 338.5,29.5C 339.391,28.8902 340.391,28.5569 341.5,28.5 Z"/></g>
<g><path style="opacity:0.302" fill="#f5d067" d="M 415.5,29.5 C 415.5,30.1667 415.5,30.8333 415.5,31.5C 413.938,31.2671 412.605,30.6005 411.5,29.5C 409.643,28.2463 407.643,28.2463 405.5,29.5C 404.203,31.9732 404.203,34.3066 405.5,36.5C 406.5,37.8333 407.5,39.1667 408.5,40.5C 403.568,38.3867 401.902,34.72 403.5,29.5C 405.021,28.0627 406.855,27.396 409,27.5C 411.442,27.4823 413.608,28.149 415.5,29.5 Z"/></g>
<g><path style="opacity:0.302" fill="#fad26f" d="M 147.5,28.5 C 140.627,27.9336 138.627,30.9336 141.5,37.5C 140.504,37.5858 139.671,37.2524 139,36.5C 137.078,28.4771 139.911,25.8105 147.5,28.5 Z"/></g>
<g><path style="opacity:0.302" fill="#fff7d3" d="M 474.5,28.5 C 474.5,29.1667 474.5,29.8333 474.5,30.5C 473.307,30.9704 472.64,31.9704 472.5,33.5C 472.286,35.9418 473.286,37.6085 475.5,38.5C 475.5,38.8333 475.5,39.1667 475.5,39.5C 473.983,39.4894 472.816,38.8228 472,37.5C 469.361,33.2692 470.194,30.2692 474.5,28.5 Z"/></g>
<g><path style="opacity:0.302" fill="#f5d873" d="M 289.5,28.5 C 290.496,28.4142 291.329,28.7476 292,29.5C 292.667,32.1667 292.667,34.8333 292,37.5C 291.292,38.3805 290.458,39.0472 289.5,39.5C 290.615,37.6931 291.281,35.6931 291.5,33.5C 291.48,32.2739 291.147,31.2739 290.5,30.5C 290.167,29.8333 289.833,29.1667 289.5,28.5 Z"/></g>
<g><path style="opacity:0.15" fill="#fcfdfc" d="M 474.5,30.5 C 475.388,33.0545 475.721,35.7212 475.5,38.5C 473.286,37.6085 472.286,35.9418 472.5,33.5C 472.64,31.9704 473.307,30.9704 474.5,30.5 Z"/></g>
<g><path style="opacity:0.302" fill="#fffce6" d="M 222.5,28.5 C 222.833,28.5 223.167,28.5 223.5,28.5C 223.833,29.5 224.5,30.1667 225.5,30.5C 225.599,33.2372 225.265,35.9039 224.5,38.5C 221.991,39.9213 219.657,41.5879 217.5,43.5C 215.486,43.6085 213.82,42.9418 212.5,41.5C 212.5,41.1667 212.5,40.8333 212.5,40.5C 214.833,41.8333 217.167,41.8333 219.5,40.5C 219.5,37.1667 221.167,35.5 224.5,35.5C 224.6,32.8915 223.933,30.5582 222.5,28.5 Z"/></g>
<g><path style="opacity:0.302" fill="#f7ce60" d="M 338.5,29.5 C 338.205,31.7354 338.539,33.7354 339.5,35.5C 339.5,36.1667 339.5,36.8333 339.5,37.5C 338.167,37.5 336.833,37.5 335.5,37.5C 336.506,34.7903 337.506,32.1237 338.5,29.5 Z"/></g>
<g><path style="opacity:0.302" fill="#f8e6a8" d="M 7.5,35.5 C 8.83333,35.5 9.5,36.1667 9.5,37.5C 8.83333,37.5 8.16667,37.5 7.5,37.5C 7.5,36.8333 7.5,36.1667 7.5,35.5 Z"/></g>
<g><path style="opacity:0.302" fill="#f9de8a" d="M 206.5,29.5 C 206.338,31.5273 206.505,33.5273 207,35.5C 207.383,36.056 207.883,36.3893 208.5,36.5C 208.5,36.8333 208.5,37.1667 208.5,37.5C 208.5,37.8333 208.5,38.1667 208.5,38.5C 207.542,38.0472 206.708,37.3805 206,36.5C 205.204,33.9615 205.371,31.6282 206.5,29.5 Z"/></g>
<g><path style="opacity:0.302" fill="#fde6a6" d="M 93.5,35.5 C 92.9202,37.7488 91.5869,39.4154 89.5,40.5C 90.0798,38.2512 91.4131,36.5846 93.5,35.5 Z"/></g>
<g><path style="opacity:0.302" fill="#f3d371" d="M 225.5,30.5 C 226.152,31.4486 226.486,32.6153 226.5,34C 226.693,36.0081 226.026,37.5081 224.5,38.5C 225.265,35.9039 225.599,33.2372 225.5,30.5 Z"/></g>
<g><path style="opacity:0.302" fill="#f8df86" d="M 357.5,31.5 C 359.184,34.718 358.517,37.3846 355.5,39.5C 355.557,38.391 355.89,37.391 356.5,36.5C 357.451,35.0813 357.784,33.4147 357.5,31.5 Z"/></g>
<g><path style="opacity:0.302" fill="#fffbda" d="M 9.5,37.5 C 13.0855,38.7744 16.4188,40.441 19.5,42.5C 18.6857,44.2726 17.3524,44.7726 15.5,44C 13.2941,41.9633 11.2941,39.7966 9.5,37.5 Z"/></g>
<g><path style="opacity:0.302" fill="#fcf7bf" d="M 208.5,37.5 C 210.03,38.2112 211.363,39.2112 212.5,40.5C 212.5,40.8333 212.5,41.1667 212.5,41.5C 212.167,41.5 211.833,41.5 211.5,41.5C 210.167,40.8333 209.167,39.8333 208.5,38.5C 208.5,38.1667 208.5,37.8333 208.5,37.5 Z"/></g>
<g><path style="opacity:0.302" fill="#f5d76f" d="M 26.5,37.5 C 26.0334,40.2974 24.3667,41.6308 21.5,41.5C 22.1667,40.8333 22.8333,40.1667 23.5,39.5C 24.5,38.8333 25.5,38.1667 26.5,37.5 Z"/></g>
<g><path style="opacity:0.302" fill="#fefce3" d="M 290.5,30.5 C 291.147,31.2739 291.48,32.2739 291.5,33.5C 291.281,35.6931 290.615,37.6931 289.5,39.5C 287.122,41.0412 284.622,42.3745 282,43.5C 280.301,43.6134 279.134,42.9468 278.5,41.5C 280.117,42.038 281.784,42.3713 283.5,42.5C 283.5,41.5 283.5,40.5 283.5,39.5C 286.5,39.8333 287.833,38.5 287.5,35.5C 288.5,35.5 289.5,35.5 290.5,35.5C 290.5,33.8333 290.5,32.1667 290.5,30.5 Z"/></g>
<g><path style="opacity:0.302" fill="#fff5d0" d="M 75.5,29.5 C 75.3379,31.5273 75.5045,33.5273 76,35.5C 78.1326,37.0905 79.7993,39.0905 81,41.5C 82.6995,42.4061 84.5328,42.7394 86.5,42.5C 85.0813,43.4511 83.4147,43.7845 81.5,43.5C 77.6017,40.6933 74.935,37.0267 73.5,32.5C 73.6399,30.9704 74.3065,29.9704 75.5,29.5 Z"/></g>
<g><path style="opacity:0.302" fill="#f7d980" d="M 141.5,37.5 C 143.167,38.8333 144.833,40.1667 146.5,41.5C 146.833,42.1667 147.167,42.8333 147.5,43.5C 144.167,42.8333 142.167,40.8333 141.5,37.5 Z"/></g>
<g><path style="opacity:0.302" fill="#fffcdc" d="M 155.5,39.5 C 153.685,42.4074 151.019,43.7407 147.5,43.5C 147.167,42.8333 146.833,42.1667 146.5,41.5C 147.583,41.5394 148.583,41.8728 149.5,42.5C 151.13,40.736 153.13,39.736 155.5,39.5 Z"/></g>
<g><path style="opacity:0.302" fill="#fff8ce" d="M 410.5,41.5 C 412.435,42.1495 414.435,42.4828 416.5,42.5C 416.167,43.1667 415.833,43.8333 415.5,44.5C 413.067,44.7271 411.401,43.7271 410.5,41.5 Z"/></g>
<g><path style="opacity:0.302" fill="#f5d158" d="M 7.5,37.5 C 8.16667,37.5 8.83333,37.5 9.5,37.5C 11.2941,39.7966 13.2941,41.9633 15.5,44C 17.3524,44.7726 18.6857,44.2726 19.5,42.5C 20.1667,42.1667 20.8333,41.8333 21.5,41.5C 21.4894,43.0174 20.8228,44.1841 19.5,45C 16.8333,45.6667 14.1667,45.6667 11.5,45C 10.8333,43.3333 10.1667,41.6667 9.5,40C 8.42317,39.5304 7.42317,39.6971 6.5,40.5C 6.26269,39.209 6.59603,38.209 7.5,37.5 Z"/></g>
<g><path style="opacity:0.302" fill="#f9d875" d="M 88.5,41.5 C 86.7332,45.5239 84.3998,46.1906 81.5,43.5C 83.4147,43.7845 85.0813,43.4511 86.5,42.5C 86.8417,41.6618 87.5084,41.3284 88.5,41.5 Z"/></g>
<g><path style="opacity:0.302" fill="#f4d877" d="M 159.5,36.5 C 157.451,40.8801 154.118,43.8801 149.5,45.5C 148.287,45.2528 147.62,44.5862 147.5,43.5C 151.019,43.7407 153.685,42.4074 155.5,39.5C 156.833,38.5 158.167,37.5 159.5,36.5 Z"/></g>
<g><path style="opacity:0.302" fill="#f6d35f" d="M 272.5,29.5 C 271.28,31.2837 271.28,32.9504 272.5,34.5C 273.781,37.4474 275.781,39.7807 278.5,41.5C 279.134,42.9468 280.301,43.6134 282,43.5C 284.622,42.3745 287.122,41.0412 289.5,39.5C 288.766,40.7079 288.433,42.0413 288.5,43.5C 286.174,44.1511 283.841,44.8178 281.5,45.5C 279.701,45.423 278.034,44.923 276.5,44C 275.167,41.4186 273.334,39.2519 271,37.5C 270.833,36.1667 270.667,34.8333 270.5,33.5C 270.585,31.6672 271.252,30.3339 272.5,29.5 Z"/></g>
<g><path style="opacity:0.302" fill="#f7d578" d="M 421.5,39.5 C 420.089,41.914 418.089,43.5806 415.5,44.5C 415.833,43.8333 416.167,43.1667 416.5,42.5C 417.922,41.075 419.589,40.075 421.5,39.5 Z"/></g>
<g><path style="opacity:0.302" fill="#fbd56f" d="M 211.5,41.5 C 211.833,41.5 212.167,41.5 212.5,41.5C 213.82,42.9418 215.486,43.6085 217.5,43.5C 216.159,45.12 214.326,46.12 212,46.5C 211.506,44.8659 211.34,43.1992 211.5,41.5 Z"/></g>
<g><path style="opacity:0.302" fill="#fad05b" d="M 355.5,39.5 C 355.262,42.1483 353.928,43.9817 351.5,45C 353.645,45.7431 353.811,46.5765 352,47.5C 349.455,46.5294 347.288,45.1961 345.5,43.5C 349.497,43.7253 352.831,42.3919 355.5,39.5 Z"/></g>
<g><path style="opacity:0.302" fill="#f8cf64" d="M 124.5,49.5 C 121.254,49.1351 118.588,50.1351 116.5,52.5C 115.893,52.3764 115.56,52.0431 115.5,51.5C 113.721,49.6565 111.388,48.9898 108.5,49.5C 111.938,48.3138 115.604,47.6472 119.5,47.5C 121.64,47.5561 123.306,48.2227 124.5,49.5 Z"/></g>
<g><path style="opacity:0.302" fill="#f9d365" d="M 256.5,49.5 C 254.585,49.2155 252.919,49.5489 251.5,50.5C 250.292,51.2341 248.959,51.5674 247.5,51.5C 247.5,51.1667 247.5,50.8333 247.5,50.5C 249.549,50.2942 249.883,49.4609 248.5,48C 249.833,47.8333 251.167,47.6667 252.5,47.5C 254.333,47.5854 255.666,48.2521 256.5,49.5 Z"/></g>
<g><path style="opacity:0.302" fill="#f8d26d" d="M 58.5,49.5 C 55.5178,49.1044 52.8511,49.7711 50.5,51.5C 48.4902,49.8287 46.1569,49.162 43.5,49.5C 45.6943,48.2335 48.0276,48.2335 50.5,49.5C 52.5,48.8333 54.5,48.1667 56.5,47.5C 57.5223,47.8555 58.189,48.5222 58.5,49.5 Z"/></g>
<g><path style="opacity:0.302" fill="#fffad2" d="M 240.5,50.5 C 241.919,49.5489 243.585,49.2155 245.5,49.5C 246.492,49.3284 247.158,49.6618 247.5,50.5C 247.5,50.8333 247.5,51.1667 247.5,51.5C 245.236,50.7814 242.903,50.448 240.5,50.5 Z"/></g>
<g><path style="opacity:0.302" fill="#f8d776" d="M 323.5,49.5 C 319.92,48.9228 316.92,49.9228 314.5,52.5C 313.575,51.6431 312.908,50.6431 312.5,49.5C 316.022,48.738 319.689,48.738 323.5,49.5 Z"/></g>
<g><path style="opacity:0.302" fill="#fff5cc" d="M 383.5,50.5 C 389.18,48.1612 391.846,50.1612 391.5,56.5C 390.094,56.9731 389.427,57.9731 389.5,59.5C 389.167,59.5 388.833,59.5 388.5,59.5C 388.578,56.7482 388.745,54.0816 389,51.5C 387.301,50.5939 385.467,50.2606 383.5,50.5 Z"/></g>
<g><path style="opacity:0.302" fill="#f9d45d" d="M 391.5,56.5 C 391.846,50.1612 389.18,48.1612 383.5,50.5C 382.292,51.2341 380.959,51.5674 379.5,51.5C 379.5,50.8333 379.5,50.1667 379.5,49.5C 381.594,48.7578 383.761,48.0911 386,47.5C 391.776,48.1671 393.609,51.1671 391.5,56.5 Z"/></g>
<g><path style="opacity:0.302" fill="#fef4c5" d="M 41.5,50.5 C 41.8417,49.6618 42.5084,49.3284 43.5,49.5C 46.1569,49.162 48.4902,49.8287 50.5,51.5C 52.8511,49.7711 55.5178,49.1044 58.5,49.5C 59.3382,49.8417 59.6716,50.5084 59.5,51.5C 56.0195,49.8633 53.0195,50.5299 50.5,53.5C 48.0798,50.9228 45.0798,49.9228 41.5,50.5 Z"/></g>
<g><path style="opacity:0.302" fill="#fefcf2" d="M 124.5,49.5 C 125.401,50.2905 126.068,51.2905 126.5,52.5C 126.426,56.648 124.759,59.9813 121.5,62.5C 119.393,62.7221 117.726,63.7221 116.5,65.5C 114.147,63.4773 111.814,61.4773 109.5,59.5C 109.167,58.8333 108.833,58.1667 108.5,57.5C 107.248,51.0786 109.581,49.0786 115.5,51.5C 115.56,52.0431 115.893,52.3764 116.5,52.5C 118.588,50.1351 121.254,49.1351 124.5,49.5 Z"/></g>
<g><path style="opacity:0.302" fill="#f6ce69" d="M 378.5,49.5 C 371.979,48.3401 369.979,50.6735 372.5,56.5C 373.075,58.4113 374.075,60.078 375.5,61.5C 373.956,61.2969 372.622,60.6302 371.5,59.5C 370.343,56.2156 370.176,52.8823 371,49.5C 373.621,46.8598 376.121,46.8598 378.5,49.5 Z"/></g>
<g><path style="opacity:0.302" fill="#fefcfd" d="M 444.5,50.5 C 444.106,53.7123 445.272,56.0456 448,57.5C 448.5,57.3333 449,57.1667 449.5,57C 448.643,56.3109 447.977,55.4776 447.5,54.5C 450.086,53.52 452.753,53.1866 455.5,53.5C 455.122,55.921 454.455,58.2543 453.5,60.5C 449.5,60.5 445.5,60.5 441.5,60.5C 441.25,58.326 440.25,56.6594 438.5,55.5C 439.502,53.9891 440.169,52.3224 440.5,50.5C 441.833,50.5 443.167,50.5 444.5,50.5 Z"/></g>
<g><path style="opacity:0.302" fill="#fad668" d="M 245.5,49.5 C 243.585,49.2155 241.919,49.5489 240.5,50.5C 239.371,52.6282 239.204,54.9615 240,57.5C 241.627,58.5323 242.793,59.8656 243.5,61.5C 242.07,61.5792 240.736,61.2458 239.5,60.5C 238.341,56.878 238.175,53.2113 239,49.5C 241.274,48.1888 243.44,48.1888 245.5,49.5 Z"/></g>
<g><path style="opacity:0.302" fill="#fdfcf9" d="M 240.5,50.5 C 242.903,50.448 245.236,50.7814 247.5,51.5C 248.959,51.5674 250.292,51.2341 251.5,50.5C 253.167,50.5 254.833,50.5 256.5,50.5C 256.5,53.1667 256.5,55.8333 256.5,58.5C 256.5,59.1667 256.167,59.5 255.5,59.5C 253.641,59.4609 252.308,60.2942 251.5,62C 249.527,62.4955 247.527,62.6621 245.5,62.5C 245.553,58.8618 243.887,56.8618 240.5,56.5C 240.5,54.5 240.5,52.5 240.5,50.5 Z"/></g>
<g><path style="opacity:0.302" fill="#fdfbe4" d="M 312.5,49.5 C 312.908,50.6431 313.575,51.6431 314.5,52.5C 316.92,49.9228 319.92,48.9228 323.5,49.5C 323.5,49.8333 323.5,50.1667 323.5,50.5C 324.219,52.7638 324.552,55.0971 324.5,57.5C 323.167,58.8333 321.833,60.1667 320.5,61.5C 321.953,58.0137 322.619,54.347 322.5,50.5C 319.401,50.0923 317.067,51.259 315.5,54C 314.552,54.4828 313.552,54.6495 312.5,54.5C 312.649,53.448 312.483,52.448 312,51.5C 311,52.8333 310,52.8333 309,51.5C 306.408,53.0083 305.908,55.0083 307.5,57.5C 303.909,52.0553 305.575,49.3886 312.5,49.5 Z"/></g>
<g><path style="opacity:0.302" fill="#fef8c5" d="M 378.5,49.5 C 378.833,49.5 379.167,49.5 379.5,49.5C 379.5,50.1667 379.5,50.8333 379.5,51.5C 374.205,49.086 371.871,50.7527 372.5,56.5C 369.979,50.6735 371.979,48.3401 378.5,49.5 Z"/></g>
<g><path style="opacity:0.302" fill="#fefbdf" d="M 443.5,49.5 C 444.167,49.5 444.5,49.8333 444.5,50.5C 443.167,50.5 441.833,50.5 440.5,50.5C 440.169,52.3224 439.502,53.9891 438.5,55.5C 436.778,51.0762 438.445,49.0762 443.5,49.5 Z"/></g>
<g><path style="opacity:0.302" fill="#fefbed" d="M 453.5,49.5 C 455.319,51.4716 456.319,53.8049 456.5,56.5C 455.974,58.2303 454.974,59.5637 453.5,60.5C 454.455,58.2543 455.122,55.921 455.5,53.5C 452.753,53.1866 450.086,53.52 447.5,54.5C 447.977,55.4776 448.643,56.3109 449.5,57C 449,57.1667 448.5,57.3333 448,57.5C 445.272,56.0456 444.106,53.7123 444.5,50.5C 445.265,50.9234 446.098,51.2568 447,51.5C 448.879,49.9872 451.046,49.3205 453.5,49.5 Z"/></g>
<g><path style="opacity:0.302" fill="#fefacf" d="M 108.5,49.5 C 111.388,48.9898 113.721,49.6565 115.5,51.5C 109.581,49.0786 107.248,51.0786 108.5,57.5C 107.233,54.9387 107.233,52.272 108.5,49.5 Z"/></g>
<g><path style="opacity:0.302" fill="#fcfdfb" d="M 189.5,59.5 C 189.167,60.5 188.5,61.1667 187.5,61.5C 185.156,60.3284 182.823,60.3284 180.5,61.5C 179.378,60.3698 178.044,59.7031 176.5,59.5C 175.5,59.1667 174.833,58.5 174.5,57.5C 174.792,54.1991 176.459,52.1991 179.5,51.5C 179.5,52.5 179.5,53.5 179.5,54.5C 183.121,53.6275 186.788,52.9608 190.5,52.5C 190.52,54.143 189.853,55.4763 188.5,56.5C 189.127,57.4168 189.461,58.4168 189.5,59.5 Z"/></g>
<g><path style="opacity:0.302" fill="#fdfae3" d="M 185.5,49.5 C 187.527,49.3379 189.527,49.5045 191.5,50C 192.252,50.6708 192.586,51.5041 192.5,52.5C 192.834,55.491 191.834,57.8243 189.5,59.5C 189.461,58.4168 189.127,57.4168 188.5,56.5C 189.853,55.4763 190.52,54.143 190.5,52.5C 186.788,52.9608 183.121,53.6275 179.5,54.5C 179.5,53.5 179.5,52.5 179.5,51.5C 176.459,52.1991 174.792,54.1991 174.5,57.5C 172.131,49.4035 174.798,47.4035 182.5,51.5C 183.739,51.0576 184.739,50.3909 185.5,49.5 Z"/></g>
<g><path style="opacity:0.302" fill="#fffbd5" d="M 251.5,50.5 C 252.919,49.5489 254.585,49.2155 256.5,49.5C 257.167,49.5 257.5,49.8333 257.5,50.5C 259.102,53.5342 258.769,56.2009 256.5,58.5C 256.5,55.8333 256.5,53.1667 256.5,50.5C 254.833,50.5 253.167,50.5 251.5,50.5 Z"/></g>
<g><path style="opacity:0.302" fill="#fefcf2" d="M 41.5,50.5 C 45.0798,49.9228 48.0798,50.9228 50.5,53.5C 53.0195,50.5299 56.0195,49.8633 59.5,51.5C 60.7563,53.7257 60.7563,56.059 59.5,58.5C 57.1837,59.422 55.517,61.0887 54.5,63.5C 52.9731,63.427 51.9731,64.0937 51.5,65.5C 49.0676,64.2498 46.7343,62.7498 44.5,61C 43.7476,60.3292 43.4142,59.4959 43.5,58.5C 41.9539,56.1175 41.2872,53.4509 41.5,50.5 Z"/></g>
<g><path style="opacity:0.302" fill="#fdfdfb" d="M 320.5,61.5 C 319.833,61.5 319.5,61.8333 319.5,62.5C 317.167,62.5 314.833,62.5 312.5,62.5C 312.616,59.0897 310.95,57.7564 307.5,58.5C 307.5,58.1667 307.5,57.8333 307.5,57.5C 305.908,55.0083 306.408,53.0083 309,51.5C 310,52.8333 311,52.8333 312,51.5C 312.483,52.448 312.649,53.448 312.5,54.5C 313.552,54.6495 314.552,54.4828 315.5,54C 317.067,51.259 319.401,50.0923 322.5,50.5C 322.619,54.347 321.953,58.0137 320.5,61.5 Z"/></g>
<g><path style="opacity:0.302" fill="#f8e99a" d="M 323.5,50.5 C 324.993,51.3121 325.66,52.6455 325.5,54.5C 325.48,55.7261 325.147,56.7261 324.5,57.5C 324.552,55.0971 324.219,52.7638 323.5,50.5 Z"/></g>
<g><path style="opacity:0.302" fill="#fdfcfb" d="M 383.5,50.5 C 385.467,50.2606 387.301,50.5939 389,51.5C 388.745,54.0816 388.578,56.7482 388.5,59.5C 387.167,60.5 385.833,61.5 384.5,62.5C 382.784,62.6287 381.117,62.962 379.5,63.5C 378.5,63.1667 377.833,62.5 377.5,61.5C 376.71,60.2058 375.71,59.0391 374.5,58C 378.75,56.891 381.75,54.391 383.5,50.5 Z"/></g>
<g><path style="opacity:0.302" fill="#fff5c2" d="M 453.5,49.5 C 456.987,50.4446 458.32,52.7779 457.5,56.5C 457.167,56.5 456.833,56.5 456.5,56.5C 456.319,53.8049 455.319,51.4716 453.5,49.5 Z"/></g>
<g><path style="opacity:0.302" fill="#fcfbed" d="M 379.5,51.5 C 380.959,51.5674 382.292,51.2341 383.5,50.5C 381.75,54.391 378.75,56.891 374.5,58C 375.71,59.0391 376.71,60.2058 377.5,61.5C 376.833,61.5 376.167,61.5 375.5,61.5C 374.075,60.078 373.075,58.4113 372.5,56.5C 371.871,50.7527 374.205,49.086 379.5,51.5 Z"/></g>
<g><path style="opacity:0.302" fill="#fff7bd" d="M 40.5,50.5 C 40.8333,50.5 41.1667,50.5 41.5,50.5C 41.2872,53.4509 41.9539,56.1175 43.5,58.5C 40.8283,56.6086 39.8283,53.9419 40.5,50.5 Z"/></g>
<g><path style="opacity:0.302" fill="#fffad6" d="M 438.5,55.5 C 440.25,56.6594 441.25,58.326 441.5,60.5C 439.273,59.5994 438.273,57.9328 438.5,55.5 Z"/></g>
<g><path style="opacity:0.302" fill="#f8d369" d="M 108.5,49.5 C 107.233,52.272 107.233,54.9387 108.5,57.5C 108.833,58.1667 109.167,58.8333 109.5,59.5C 106.266,59.7634 104.932,58.2634 105.5,55C 105.116,52.2585 106.116,50.4251 108.5,49.5 Z"/></g>
<g><path style="opacity:0.302" fill="#f7d16f" d="M 126.5,52.5 C 128.103,57.2946 126.437,60.628 121.5,62.5C 124.759,59.9813 126.426,56.648 126.5,52.5 Z"/></g>
<g><path style="opacity:0.302" fill="#f6d774" d="M 185.5,49.5 C 184.739,50.3909 183.739,51.0576 182.5,51.5C 174.798,47.4035 172.131,49.4035 174.5,57.5C 174.833,58.5 175.5,59.1667 176.5,59.5C 176.833,60.1667 177.167,60.8333 177.5,61.5C 175.629,61.1412 174.129,60.1412 173,58.5C 172.333,55.5 172.333,52.5 173,49.5C 177.109,48.444 181.275,48.444 185.5,49.5 Z"/></g>
<g><path style="opacity:0.302" fill="#f9d47f" d="M 192.5,52.5 C 194.103,57.2946 192.437,60.628 187.5,62.5C 187.5,62.1667 187.5,61.8333 187.5,61.5C 188.5,61.1667 189.167,60.5 189.5,59.5C 191.834,57.8243 192.834,55.491 192.5,52.5 Z"/></g>
<g><path style="opacity:0.302" fill="#fffcde" d="M 240.5,50.5 C 240.5,52.5 240.5,54.5 240.5,56.5C 243.887,56.8618 245.553,58.8618 245.5,62.5C 244.833,62.1667 244.167,61.8333 243.5,61.5C 242.793,59.8656 241.627,58.5323 240,57.5C 239.204,54.9615 239.371,52.6282 240.5,50.5 Z"/></g>
<g><path style="opacity:0.302" fill="#f4d061" d="M 443.5,49.5 C 438.445,49.0762 436.778,51.0762 438.5,55.5C 438.273,57.9328 439.273,59.5994 441.5,60.5C 442.167,61.5 442.833,62.5 443.5,63.5C 442.167,63.5 440.833,63.5 439.5,63.5C 439.716,61.3193 438.883,59.6526 437,58.5C 436.333,55.1667 436.333,51.8333 437,48.5C 439.456,47.1578 441.622,47.4911 443.5,49.5 Z"/></g>
<g><path style="opacity:0.302" fill="#fad470" d="M 312.5,49.5 C 305.575,49.3886 303.909,52.0553 307.5,57.5C 307.5,57.8333 307.5,58.1667 307.5,58.5C 309.167,60.5 310.833,62.5 312.5,64.5C 310.201,63.2222 307.868,61.8889 305.5,60.5C 305.167,58.8333 304.833,57.1667 304.5,55.5C 304.161,49.1525 306.828,47.1525 312.5,49.5 Z"/></g>
<g><path style="opacity:0.302" fill="#fefbe1" d="M 441.5,60.5 C 445.5,60.5 449.5,60.5 453.5,60.5C 451.21,61.4905 449.544,63.1571 448.5,65.5C 446.486,65.6085 444.82,64.9418 443.5,63.5C 442.833,62.5 442.167,61.5 441.5,60.5 Z"/></g>
<g><path style="opacity:0.302" fill="#f4d266" d="M 40.5,50.5 C 39.8283,53.9419 40.8283,56.6086 43.5,58.5C 43.4142,59.4959 43.7476,60.3292 44.5,61C 46.7343,62.7498 49.0676,64.2498 51.5,65.5C 50.3281,66.7053 48.9948,66.7053 47.5,65.5C 44.4782,63.3119 41.9782,60.6452 40,57.5C 39.2042,54.9615 39.3709,52.6282 40.5,50.5 Z"/></g>
<g><path style="opacity:0.302" fill="#fdfce6" d="M 176.5,59.5 C 178.044,59.7031 179.378,60.3698 180.5,61.5C 182.823,60.3284 185.156,60.3284 187.5,61.5C 187.5,61.8333 187.5,62.1667 187.5,62.5C 185.393,62.7221 183.726,63.7221 182.5,65.5C 180.814,64.1431 179.148,62.8098 177.5,61.5C 177.167,60.8333 176.833,60.1667 176.5,59.5 Z"/></g>
<g><path style="opacity:0.302" fill="#f5d789" d="M 59.5,58.5 C 58.483,60.9113 56.8163,62.578 54.5,63.5C 55.517,61.0887 57.1837,59.422 59.5,58.5 Z"/></g>
<g><path style="opacity:0.302" fill="#fefbde" d="M 255.5,59.5 C 253.807,62.6818 251.141,64.3484 247.5,64.5C 246.833,63.8333 246.167,63.1667 245.5,62.5C 247.527,62.6621 249.527,62.4955 251.5,62C 252.308,60.2942 253.641,59.4609 255.5,59.5 Z"/></g>
<g><path style="opacity:0.302" fill="#fdf9de" d="M 307.5,58.5 C 310.95,57.7564 312.616,59.0897 312.5,62.5C 314.833,62.5 317.167,62.5 319.5,62.5C 317.562,64.1628 315.228,64.8294 312.5,64.5C 310.833,62.5 309.167,60.5 307.5,58.5 Z"/></g>
<g><path style="opacity:0.302" fill="#fff8cb" d="M 384.5,62.5 C 384.167,63.1667 383.833,63.8333 383.5,64.5C 382.417,64.5394 381.417,64.8728 380.5,65.5C 379.702,65.0431 379.369,64.3764 379.5,63.5C 381.117,62.962 382.784,62.6287 384.5,62.5 Z"/></g>
<g><path style="opacity:0.302" fill="#f9d279" d="M 388.5,59.5 C 388.833,59.5 389.167,59.5 389.5,59.5C 388.089,61.914 386.089,63.5806 383.5,64.5C 383.833,63.8333 384.167,63.1667 384.5,62.5C 385.833,61.5 387.167,60.5 388.5,59.5 Z"/></g>
<g><path style="opacity:0.302" fill="#f7d36a" d="M 456.5,56.5 C 456.833,56.5 457.167,56.5 457.5,56.5C 456.545,58.7457 455.878,61.079 455.5,63.5C 452.892,63.4003 450.558,64.0669 448.5,65.5C 449.544,63.1571 451.21,61.4905 453.5,60.5C 454.974,59.5637 455.974,58.2303 456.5,56.5 Z"/></g>
<g><path style="opacity:0.302" fill="#f6d26e" d="M 257.5,50.5 C 259.89,50.6848 260.89,52.0182 260.5,54.5C 260.308,56.5767 259.808,58.5767 259,60.5C 256.258,61.5704 253.758,63.0704 251.5,65C 249.934,65.765 248.601,65.5983 247.5,64.5C 251.141,64.3484 253.807,62.6818 255.5,59.5C 256.167,59.5 256.5,59.1667 256.5,58.5C 258.769,56.2009 259.102,53.5342 257.5,50.5 Z"/></g>
<g><path style="opacity:0.302" fill="#f3d360" d="M 87.5,69.5 C 87.1667,70.1667 86.8333,70.8333 86.5,71.5C 86.1667,71.5 85.8333,71.5 85.5,71.5C 84.1667,71.5 82.8333,71.5 81.5,71.5C 80.8658,70.0532 79.6991,69.3866 78,69.5C 76.6244,69.6842 75.7911,70.3509 75.5,71.5C 75.1667,71.5 74.8333,71.5 74.5,71.5C 74.5,70.5 74.5,69.5 74.5,68.5C 78.8422,68.7395 83.1756,69.0728 87.5,69.5 Z"/></g>
<g><path style="opacity:0.302" fill="#fde6a6" d="M 146.5,70.5 C 144.901,70.2322 143.568,70.5655 142.5,71.5C 140.787,72.6354 140.12,74.302 140.5,76.5C 139.258,74.6112 139.258,72.6112 140.5,70.5C 142.611,69.2584 144.611,69.2584 146.5,70.5 Z"/></g>
<g><path style="opacity:0.302" fill="#f8d574" d="M 25.5,70.5 C 24.4168,70.4606 23.4168,70.1272 22.5,69.5C 20.3821,70.9459 18.0488,71.6126 15.5,71.5C 14.2921,70.7659 12.9587,70.4326 11.5,70.5C 11.5,70.1667 11.5,69.8333 11.5,69.5C 13.4008,69.4332 15.2341,69.7665 17,70.5C 18.52,69.4933 20.1867,68.8266 22,68.5C 23.6811,68.6083 24.8478,69.2749 25.5,70.5 Z"/></g>
<g><path style="opacity:0.302" fill="#fdf5ba" d="M 81.5,71.5 C 79.5,71.5 77.5,71.5 75.5,71.5C 75.7911,70.3509 76.6244,69.6842 78,69.5C 79.6991,69.3866 80.8658,70.0532 81.5,71.5 Z"/></g>
<g><path style="opacity:0.302" fill="#fffdda" d="M 87.5,69.5 C 88.1667,69.5 88.8333,69.5 89.5,69.5C 94.4091,72.721 94.7424,76.3876 90.5,80.5C 91.0613,78.092 91.5613,75.7587 92,73.5C 90.5557,71.8446 88.7224,71.178 86.5,71.5C 86.8333,70.8333 87.1667,70.1667 87.5,69.5 Z"/></g>
<g><path style="opacity:0.302" fill="#fcf4d0" d="M 159.5,77.5 C 159.167,77.5 158.833,77.5 158.5,77.5C 158.5,77.1667 158.5,76.8333 158.5,76.5C 158.547,72.3516 156.547,70.8516 152.5,72C 151.91,73.2989 150.91,74.1322 149.5,74.5C 147.513,72.6726 145.179,71.6726 142.5,71.5C 143.568,70.5655 144.901,70.2322 146.5,70.5C 147.416,70.9817 148.416,71.315 149.5,71.5C 156.04,68.0306 159.373,70.0306 159.5,77.5 Z"/></g>
<g><path style="opacity:0.302" fill="#fff6c8" d="M 357.5,73.5 C 355.007,72.2264 352.341,71.5597 349.5,71.5C 351.51,69.42 353.843,69.0866 356.5,70.5C 357.386,71.325 357.719,72.325 357.5,73.5 Z"/></g>
<g><path style="opacity:0.292" fill="#fefdfa" d="M 11.5,70.5 C 12.9587,70.4326 14.2921,70.7659 15.5,71.5C 15.4701,72.4972 15.9701,73.1639 17,73.5C 24.7963,69.8135 27.2963,71.8135 24.5,79.5C 20.5089,78.872 19.1755,80.2053 20.5,83.5C 19.8333,83.5 19.5,83.8333 19.5,84.5C 18.1266,84.6567 16.7932,84.49 15.5,84C 12.7396,82.0155 10.7396,79.5155 9.5,76.5C 10.2899,75.2058 11.2899,74.0391 12.5,73C 11.7476,72.3292 11.4142,71.4959 11.5,70.5 Z"/></g>
<g><path style="opacity:0.302" fill="#fefdf9" d="M 85.5,71.5 C 85.8333,71.5 86.1667,71.5 86.5,71.5C 88.7224,71.178 90.5557,71.8446 92,73.5C 91.5613,75.7587 91.0613,78.092 90.5,80.5C 90.1667,81.1667 89.8333,81.8333 89.5,82.5C 88.2905,82.9321 87.2905,83.5987 86.5,84.5C 84.7163,85.7199 83.0496,85.7199 81.5,84.5C 81.5278,80.845 79.8611,78.1783 76.5,76.5C 75.7542,75.2638 75.4208,73.9305 75.5,72.5C 78.9322,72.7573 82.2655,73.424 85.5,74.5C 85.5,73.5 85.5,72.5 85.5,71.5 Z"/></g>
<g><path style="opacity:0.302" fill="#f9d26d" d="M 89.5,69.5 C 93.4807,69.4273 95.1474,71.4273 94.5,75.5C 93.9789,77.9241 93.3123,80.2574 92.5,82.5C 91.5,82.5 90.5,82.5 89.5,82.5C 89.8333,81.8333 90.1667,81.1667 90.5,80.5C 94.7424,76.3876 94.4091,72.721 89.5,69.5 Z"/></g>
<g><path style="opacity:0.302" fill="#fefdf2" d="M 223.5,70.5 C 224.551,71.2223 225.218,72.2223 225.5,73.5C 225.977,77.6896 224.311,80.6896 220.5,82.5C 218.906,82.9195 217.406,83.5862 216,84.5C 214.594,83.5862 213.094,82.9195 211.5,82.5C 209.413,81.4154 208.08,79.7488 207.5,77.5C 207.392,70.2522 210.059,68.9189 215.5,73.5C 217.816,71.5065 220.482,70.5065 223.5,70.5 Z"/></g>
<g><path style="opacity:0.302" fill="#fdfcf6" d="M 345.5,71.5 C 346.261,72.3909 347.261,73.0576 348.5,73.5C 349.298,73.0431 349.631,72.3764 349.5,71.5C 352.341,71.5597 355.007,72.2264 357.5,73.5C 357.5,74.8333 357.5,76.1667 357.5,77.5C 357.5,77.8333 357.5,78.1667 357.5,78.5C 354.833,80.5 352.5,82.8333 350.5,85.5C 350.167,85.5 349.833,85.5 349.5,85.5C 347.315,85.2964 345.315,84.6298 343.5,83.5C 343.167,82.8333 342.833,82.1667 342.5,81.5C 340.822,78.4484 340.155,75.1151 340.5,71.5C 342.167,71.5 343.833,71.5 345.5,71.5 Z"/></g>
<g><path style="opacity:0.302" fill="#f2e298" d="M 345.5,71.5 C 346.833,71.5 348.167,71.5 349.5,71.5C 349.631,72.3764 349.298,73.0431 348.5,73.5C 347.261,73.0576 346.261,72.3909 345.5,71.5 Z"/></g>
<g><path style="opacity:0.302" fill="#fdfcfb" d="M 142.5,71.5 C 145.179,71.6726 147.513,72.6726 149.5,74.5C 150.91,74.1322 151.91,73.2989 152.5,72C 156.547,70.8516 158.547,72.3516 158.5,76.5C 156.952,76.8212 156.285,77.8212 156.5,79.5C 154.61,79.7035 153.11,79.0368 152,77.5C 150.312,78.3247 150.145,79.3247 151.5,80.5C 150.667,80.8333 149.833,81.1667 149,81.5C 146.774,80.9671 144.607,80.3004 142.5,79.5C 141.599,78.7095 140.932,77.7095 140.5,76.5C 140.12,74.302 140.787,72.6354 142.5,71.5 Z"/></g>
<g><path style="opacity:0.302" fill="#fdeebd" d="M 223.5,70.5 C 220.482,70.5065 217.816,71.5065 215.5,73.5C 210.059,68.9189 207.392,70.2522 207.5,77.5C 204.879,75.3114 204.879,72.978 207.5,70.5C 212.95,71.7758 218.284,71.7758 223.5,70.5 Z"/></g>
<g><path style="opacity:0.302" fill="#f5d366" d="M 273.5,70.5 C 271.679,74.4658 272.346,77.7991 275.5,80.5C 276.916,82.1793 278.25,83.8459 279.5,85.5C 277.5,84.8333 275.5,84.1667 273.5,83.5C 273.271,81.567 272.438,79.9003 271,78.5C 270.503,75.854 270.336,73.1873 270.5,70.5C 271.5,70.5 272.5,70.5 273.5,70.5 Z"/></g>
<g><path style="opacity:0.302" fill="#fffadd" d="M 279.5,69.5 C 281.197,74.5436 283.197,74.5436 285.5,69.5C 287.099,69.2322 288.432,69.5655 289.5,70.5C 291.168,72.4786 291.834,74.812 291.5,77.5C 291.167,77.5 290.833,77.5 290.5,77.5C 290.833,73.1667 288.833,71.1667 284.5,71.5C 284.762,74.9209 283.428,75.9209 280.5,74.5C 276.301,77.3235 275.634,76.6568 278.5,72.5C 275.855,70.9061 274.188,71.5727 273.5,74.5C 274.178,76.516 274.844,78.516 275.5,80.5C 272.346,77.7991 271.679,74.4658 273.5,70.5C 275.435,69.8505 277.435,69.5172 279.5,69.5 Z"/></g>
<g><path style="opacity:0.302" fill="#f4d46d" d="M 279.5,69.5 C 281.5,69.5 283.5,69.5 285.5,69.5C 283.197,74.5436 281.197,74.5436 279.5,69.5 Z"/></g>
<g><path style="opacity:0.302" fill="#feface" d="M 345.5,70.5 C 345.5,70.8333 345.5,71.1667 345.5,71.5C 343.833,71.5 342.167,71.5 340.5,71.5C 340.155,75.1151 340.822,78.4484 342.5,81.5C 338.748,79.2057 337.581,75.8723 339,71.5C 341.041,70.5769 343.208,70.2436 345.5,70.5 Z"/></g>
<g><path style="opacity:0.302" fill="#fefcf8" d="M 411.5,71.5 C 411.833,71.5 412.167,71.5 412.5,71.5C 412.787,73.1207 413.787,74.1207 415.5,74.5C 416.386,73.675 416.719,72.675 416.5,71.5C 418.5,71.5 420.5,71.5 422.5,71.5C 422.833,71.5 423.167,71.5 423.5,71.5C 423.806,74.3854 423.473,77.0521 422.5,79.5C 420.589,80.075 418.922,81.075 417.5,82.5C 414.355,79.641 411.189,76.641 408,73.5C 407.667,73.8333 407.333,74.1667 407,74.5C 406.517,73.552 406.351,72.552 406.5,71.5C 408.167,71.5 409.833,71.5 411.5,71.5 Z"/></g>
<g><path style="opacity:0.302" fill="#f5d17a" d="M 413.5,71.5 C 413.167,71.5 412.833,71.5 412.5,71.5C 412.167,71.5 411.833,71.5 411.5,71.5C 405.673,68.9793 403.34,70.9793 404.5,77.5C 401.842,69.9943 404.508,67.4943 412.5,70C 413.056,70.3826 413.389,70.8826 413.5,71.5 Z"/></g>
<g><path style="opacity:0.302" fill="#fdfded" d="M 411.5,71.5 C 409.833,71.5 408.167,71.5 406.5,71.5C 406.351,72.552 406.517,73.552 407,74.5C 407.333,74.1667 407.667,73.8333 408,73.5C 411.189,76.641 414.355,79.641 417.5,82.5C 416.01,84.2798 414.01,84.9465 411.5,84.5C 411.158,83.6618 410.492,83.3284 409.5,83.5C 408.18,81.1829 406.514,79.1829 404.5,77.5C 403.34,70.9793 405.673,68.9793 411.5,71.5 Z"/></g>
<g><path style="opacity:0.302" fill="#fff6d1" d="M 422.5,71.5 C 420.5,71.5 418.5,71.5 416.5,71.5C 416.719,72.675 416.386,73.675 415.5,74.5C 413.787,74.1207 412.787,73.1207 412.5,71.5C 412.833,71.5 413.167,71.5 413.5,71.5C 413.56,72.0431 413.893,72.3764 414.5,72.5C 415.337,70.4947 416.837,69.4947 419,69.5C 420.699,69.3866 421.866,70.0532 422.5,71.5 Z"/></g>
<g><path style="opacity:0.302" fill="#fada82" d="M 289.5,70.5 C 290.496,70.4142 291.329,70.7476 292,71.5C 292.789,73.7116 292.622,75.7116 291.5,77.5C 291.834,74.812 291.168,72.4786 289.5,70.5 Z"/></g>
<g><path style="opacity:0.302" fill="#fad372" d="M 357.5,73.5 C 358.586,73.62 359.253,74.2867 359.5,75.5C 359.253,76.7133 358.586,77.38 357.5,77.5C 357.5,76.1667 357.5,74.8333 357.5,73.5 Z"/></g>
<g><path style="opacity:0.302" fill="#fefdf4" d="M 290.5,77.5 C 289.075,78.922 288.075,80.5887 287.5,82.5C 285.281,84.6061 282.615,85.6061 279.5,85.5C 278.25,83.8459 276.916,82.1793 275.5,80.5C 274.844,78.516 274.178,76.516 273.5,74.5C 274.188,71.5727 275.855,70.9061 278.5,72.5C 275.634,76.6568 276.301,77.3235 280.5,74.5C 283.428,75.9209 284.762,74.9209 284.5,71.5C 288.833,71.1667 290.833,73.1667 290.5,77.5 Z"/></g>
<g><path style="opacity:0.302" fill="#fffae1" d="M 471.5,72.5 C 473.105,75.1198 474.438,77.9531 475.5,81C 475.272,81.3988 474.938,81.5654 474.5,81.5C 473.542,81.0472 472.708,80.3805 472,79.5C 471.503,77.1902 471.337,74.8568 471.5,72.5 Z"/></g>
<g><path style="opacity:0.302" fill="#f0d26c" d="M 345.5,70.5 C 343.208,70.2436 341.041,70.5769 339,71.5C 337.581,75.8723 338.748,79.2057 342.5,81.5C 342.833,82.1667 343.167,82.8333 343.5,83.5C 341.246,82.5849 339.246,81.2516 337.5,79.5C 337.5,76.1667 337.5,72.8333 337.5,69.5C 340.385,69.1936 343.052,69.5269 345.5,70.5 Z"/></g>
<g><path style="opacity:0.302" fill="#f6e692" d="M 74.5,71.5 C 74.4013,74.2372 74.7347,76.9039 75.5,79.5C 73.9735,78.5081 73.3068,77.0081 73.5,75C 73.5143,73.6153 73.8476,72.4486 74.5,71.5 Z"/></g>
<g><path style="opacity:0.302" fill="#fefbe3" d="M 74.5,71.5 C 74.8333,71.5 75.1667,71.5 75.5,71.5C 77.5,71.5 79.5,71.5 81.5,71.5C 82.8333,71.5 84.1667,71.5 85.5,71.5C 85.5,72.5 85.5,73.5 85.5,74.5C 82.2655,73.424 78.9322,72.7573 75.5,72.5C 75.4208,73.9305 75.7542,75.2638 76.5,76.5C 79.8611,78.1783 81.5278,80.845 81.5,84.5C 80.5,83.8333 79.5,83.1667 78.5,82.5C 77.8333,81.1667 76.8333,80.1667 75.5,79.5C 74.7347,76.9039 74.4013,74.2372 74.5,71.5 Z"/></g>
<g><path style="opacity:0.302" fill="#fdf8db" d="M 25.5,70.5 C 28.5735,76.0525 27.2402,80.3858 21.5,83.5C 21.1667,83.5 20.8333,83.5 20.5,83.5C 19.1755,80.2053 20.5089,78.872 24.5,79.5C 27.2963,71.8135 24.7963,69.8135 17,73.5C 15.9701,73.1639 15.4701,72.4972 15.5,71.5C 18.0488,71.6126 20.3821,70.9459 22.5,69.5C 23.4168,70.1272 24.4168,70.4606 25.5,70.5 Z"/></g>
<g><path style="opacity:0.302" fill="#faeba9" d="M 290.5,77.5 C 290.833,77.5 291.167,77.5 291.5,77.5C 290.92,79.7488 289.587,81.4154 287.5,82.5C 288.075,80.5887 289.075,78.922 290.5,77.5 Z"/></g>
<g><path style="opacity:0.302" fill="#fef2b8" d="M 422.5,79.5 C 421.04,81.4628 419.373,83.2962 417.5,85C 415.288,85.7891 413.288,85.6225 411.5,84.5C 414.01,84.9465 416.01,84.2798 417.5,82.5C 418.922,81.075 420.589,80.075 422.5,79.5 Z"/></g>
<g><path style="opacity:0.302" fill="#fefdec" d="M 158.5,76.5 C 158.5,76.8333 158.5,77.1667 158.5,77.5C 157.559,79.7721 156.226,81.7721 154.5,83.5C 152.844,84.1465 151.177,84.8131 149.5,85.5C 147.816,84.4728 146.149,83.4728 144.5,82.5C 143.833,81.5 143.167,80.5 142.5,79.5C 144.607,80.3004 146.774,80.9671 149,81.5C 149.833,81.1667 150.667,80.8333 151.5,80.5C 150.145,79.3247 150.312,78.3247 152,77.5C 153.11,79.0368 154.61,79.7035 156.5,79.5C 156.285,77.8212 156.952,76.8212 158.5,76.5 Z"/></g>
<g><path style="opacity:0.302" fill="#f6d569" d="M 357.5,78.5 C 357.66,80.1992 357.494,81.8659 357,83.5C 356.586,83.0426 356.086,82.7093 355.5,82.5C 354.06,83.9524 352.394,84.9524 350.5,85.5C 352.5,82.8333 354.833,80.5 357.5,78.5 Z"/></g>
<g><path style="opacity:0.302" fill="#fad26b" d="M 423.5,71.5 C 426.136,82.533 421.802,87.1997 410.5,85.5C 410.137,84.8165 409.804,84.1499 409.5,83.5C 410.492,83.3284 411.158,83.6618 411.5,84.5C 413.288,85.6225 415.288,85.7891 417.5,85C 419.373,83.2962 421.04,81.4628 422.5,79.5C 423.473,77.0521 423.806,74.3854 423.5,71.5 Z"/></g>
<g><path style="opacity:0.302" fill="#fcf1c0" d="M 9.5,76.5 C 10.7396,79.5155 12.7396,82.0155 15.5,84C 16.7932,84.49 18.1266,84.6567 19.5,84.5C 18.4324,85.4345 17.099,85.7678 15.5,85.5C 12.7653,83.4793 10.0986,81.4793 7.5,79.5C 7.42702,77.9731 8.09368,76.9731 9.5,76.5 Z"/></g>
<g><path style="opacity:0.302" fill="#fbcf62" d="M 140.5,70.5 C 139.258,72.6112 139.258,74.6112 140.5,76.5C 140.932,77.7095 141.599,78.7095 142.5,79.5C 143.167,80.5 143.833,81.5 144.5,82.5C 142.99,83.7279 141.49,83.7279 140,82.5C 139.371,79.6891 138.871,76.8557 138.5,74C 138.608,72.3189 139.275,71.1522 140.5,70.5 Z"/></g>
<g><path style="opacity:0.302" fill="#f8d879" d="M 158.5,77.5 C 158.833,77.5 159.167,77.5 159.5,77.5C 159.228,80.7322 157.562,82.7322 154.5,83.5C 156.226,81.7721 157.559,79.7721 158.5,77.5 Z"/></g>
<g><path style="opacity:0.302" fill="#fff9cb" d="M 211.5,82.5 C 213.094,82.9195 214.594,83.5862 216,84.5C 217.406,83.5862 218.906,82.9195 220.5,82.5C 219.833,83.5 219.167,84.5 218.5,85.5C 215.369,86.0922 213.036,85.0922 211.5,82.5 Z"/></g>
<g><path style="opacity:0.302" fill="#f7d258" d="M 337.5,79.5 C 339.246,81.2516 341.246,82.5849 343.5,83.5C 345.315,84.6298 347.315,85.2964 349.5,85.5C 349.209,86.6491 348.376,87.3158 347,87.5C 344.593,86.0458 342.093,84.7125 339.5,83.5C 338.295,82.4231 337.628,81.0898 337.5,79.5 Z"/></g>
<g><path style="opacity:0.302" fill="#fcce5f" d="M 225.5,73.5 C 226.622,75.2884 226.789,77.2884 226,79.5C 224.548,82.0138 223.382,84.6805 222.5,87.5C 222.251,86.4179 222.085,85.0846 222,83.5C 221.184,84.8228 220.017,85.4894 218.5,85.5C 219.167,84.5 219.833,83.5 220.5,82.5C 224.311,80.6896 225.977,77.6896 225.5,73.5 Z"/></g>
<g><path style="opacity:0.302" fill="#fbd682" d="M 20.5,83.5 C 20.8333,83.5 21.1667,83.5 21.5,83.5C 20.1131,86.3261 18.1131,86.9927 15.5,85.5C 17.099,85.7678 18.4324,85.4345 19.5,84.5C 19.5,83.8333 19.8333,83.5 20.5,83.5 Z"/></g>
<g><path style="opacity:0.302" fill="#f4d465" d="M 78.5,82.5 C 79.5,83.1667 80.5,83.8333 81.5,84.5C 83.0496,85.7199 84.7163,85.7199 86.5,84.5C 86.5858,85.4959 86.2524,86.3292 85.5,87C 81.0817,88.468 78.7483,86.968 78.5,82.5 Z"/></g>
<g><path style="opacity:0.302" fill="#f9d36d" d="M 144.5,82.5 C 146.149,83.4728 147.816,84.4728 149.5,85.5C 151.177,84.8131 152.844,84.1465 154.5,83.5C 150.589,88.9745 147.256,88.6412 144.5,82.5 Z"/></g>
<g><path style="opacity:0.302" fill="#f4d876" d="M 108.5,91.5 C 113.5,90.1667 118.5,90.1667 123.5,91.5C 120.99,91.0535 118.99,91.7202 117.5,93.5C 116.833,93.5 116.167,93.5 115.5,93.5C 113.721,91.6565 111.388,90.9898 108.5,91.5 Z"/></g>
<g><path style="opacity:0.302" fill="#f7d26a" d="M 185.5,90.5 C 185.218,91.7777 184.551,92.7777 183.5,93.5C 180.785,91.877 177.785,91.2104 174.5,91.5C 178.058,90.1353 181.725,89.802 185.5,90.5 Z"/></g>
<g><path style="opacity:0.302" fill="#fbdd81" d="M 312.5,91.5 C 310.05,91.298 307.717,91.6314 305.5,92.5C 306.152,91.2749 307.319,90.6083 309,90.5C 310.385,90.5143 311.551,90.8476 312.5,91.5 Z"/></g>
<g><path style="opacity:0.302" fill="#f8cf5b" d="M 391.5,98.5 C 391.757,92.4073 389.09,90.074 383.5,91.5C 382.167,91.5 380.833,91.5 379.5,91.5C 372.5,89.8333 369.833,92.5 371.5,99.5C 370.525,96.6888 369.858,93.6888 369.5,90.5C 374.212,90.3506 378.712,89.3506 383,87.5C 385.578,89.0192 388.411,89.8525 391.5,90C 392.817,92.9365 392.817,95.7699 391.5,98.5 Z"/></g>
<g><path style="opacity:0.302" fill="#f8da7b" d="M 456.5,99.5 C 458.251,92.8929 455.918,90.3929 449.5,92C 448.944,92.3826 448.611,92.8826 448.5,93.5C 447.5,93.5 446.5,93.5 445.5,93.5C 443.721,91.6565 441.388,90.9898 438.5,91.5C 442.499,90.6751 446.665,90.0084 451,89.5C 457.359,90.2777 459.192,93.611 456.5,99.5 Z"/></g>
<g><path style="opacity:0.302" fill="#fef9d8" d="M 49.5,93.5 C 47.283,92.6314 44.9496,92.298 42.5,92.5C 42.5,94.8333 42.5,97.1667 42.5,99.5C 41.5318,97.3926 41.1984,95.0593 41.5,92.5C 42.6216,91.8442 43.9549,91.5108 45.5,91.5C 47.3328,91.5854 48.6661,92.2521 49.5,93.5 Z"/></g>
<g><path style="opacity:0.302" fill="#fff9d1" d="M 108.5,91.5 C 111.388,90.9898 113.721,91.6565 115.5,93.5C 113.283,92.6314 110.95,92.298 108.5,92.5C 108.5,94.8333 108.5,97.1667 108.5,99.5C 107.539,97.7354 107.205,95.7354 107.5,93.5C 107.328,92.5084 107.662,91.8417 108.5,91.5 Z"/></g>
<g><path style="opacity:0.302" fill="#fff9d2" d="M 123.5,91.5 C 125.735,92.2858 126.735,93.9524 126.5,96.5C 126.66,98.3545 125.993,99.6879 124.5,100.5C 124.5,97.8333 124.5,95.1667 124.5,92.5C 122.097,92.448 119.764,92.7814 117.5,93.5C 118.99,91.7202 120.99,91.0535 123.5,91.5 Z"/></g>
<g><path style="opacity:0.302" fill="#fef6cb" d="M 185.5,90.5 C 187.565,90.5172 189.565,90.8505 191.5,91.5C 191.5,92.1667 191.5,92.8333 191.5,93.5C 188.896,92.4696 186.229,92.4696 183.5,93.5C 184.551,92.7777 185.218,91.7777 185.5,90.5 Z"/></g>
<g><path style="opacity:0.302" fill="#fef9d6" d="M 379.5,91.5 C 379.427,93.0269 380.094,94.0269 381.5,94.5C 381.44,95.0431 381.107,95.3764 380.5,95.5C 374.767,90.6483 372.1,91.9816 372.5,99.5C 372.167,99.5 371.833,99.5 371.5,99.5C 369.833,92.5 372.5,89.8333 379.5,91.5 Z"/></g>
<g><path style="opacity:0.302" fill="#fef4c1" d="M 391.5,98.5 C 391.167,98.5 390.833,98.5 390.5,98.5C 390.673,93.6766 388.339,91.6766 383.5,92.5C 383.5,92.1667 383.5,91.8333 383.5,91.5C 389.09,90.074 391.757,92.4073 391.5,98.5 Z"/></g>
<g><path style="opacity:0.302" fill="#fefdf8" d="M 49.5,93.5 C 49.3691,94.3764 49.7025,95.0431 50.5,95.5C 52.578,93.0136 55.2447,92.0136 58.5,92.5C 58.5,95.1667 58.5,97.8333 58.5,100.5C 56.5,101.833 54.8333,103.5 53.5,105.5C 52.5178,106.141 51.5178,106.807 50.5,107.5C 48.8144,106.143 47.1477,104.81 45.5,103.5C 44.5,102.167 43.5,100.833 42.5,99.5C 42.5,97.1667 42.5,94.8333 42.5,92.5C 44.9496,92.298 47.283,92.6314 49.5,93.5 Z"/></g>
<g><path style="opacity:0.302" fill="#fdfced" d="M 174.5,91.5 C 177.785,91.2104 180.785,91.877 183.5,93.5C 186.229,92.4696 188.896,92.4696 191.5,93.5C 192.756,95.7257 192.756,98.059 191.5,100.5C 191.167,100.5 190.833,100.5 190.5,100.5C 190.5,99.5 190.5,98.5 190.5,97.5C 187.192,96.9738 185.026,98.3072 184,101.5C 182.017,92.5918 179.184,92.2585 175.5,100.5C 174.833,100.167 174.167,99.8333 173.5,99.5C 173.194,96.6146 173.527,93.9479 174.5,91.5 Z"/></g>
<g><path style="opacity:0.302" fill="#fefdf7" d="M 245.5,91.5 C 246.492,91.3284 247.158,91.6618 247.5,92.5C 247.47,93.4972 247.97,94.1639 249,94.5C 250.86,92.7991 253.027,91.7991 255.5,91.5C 257.027,91.427 258.027,92.0937 258.5,93.5C 258.552,95.9029 258.219,98.2362 257.5,100.5C 256.5,100.833 255.833,101.5 255.5,102.5C 253.173,102.665 251.007,103.331 249,104.5C 247.287,102.493 245.621,100.493 244,98.5C 243.683,100.301 243.016,100.634 242,99.5C 241.689,98.2575 242.189,97.2575 243.5,96.5C 242.726,95.2888 241.893,95.2888 241,96.5C 240.517,95.552 240.351,94.552 240.5,93.5C 241.635,91.7868 243.302,91.1201 245.5,91.5 Z"/></g>
<g><path style="opacity:0.302" fill="#fad26f" d="M 324.5,99.5 C 324.802,96.9407 324.468,94.6074 323.5,92.5C 320.589,91.1184 317.755,91.4518 315,93.5C 313.97,93.1639 313.47,92.4972 313.5,91.5C 317.518,90.329 321.518,90.329 325.5,91.5C 325.833,92.8333 326.167,94.1667 326.5,95.5C 326.415,97.3328 325.748,98.6661 324.5,99.5 Z"/></g>
<g><path style="opacity:0.302" fill="#fefdf9" d="M 381.5,94.5 C 381.833,93.5 382.5,92.8333 383.5,92.5C 388.339,91.6766 390.673,93.6766 390.5,98.5C 388.527,101.139 386.194,103.473 383.5,105.5C 379.845,105.528 377.178,103.861 375.5,100.5C 374.583,99.8728 373.583,99.5394 372.5,99.5C 372.1,91.9816 374.767,90.6483 380.5,95.5C 381.107,95.3764 381.44,95.0431 381.5,94.5 Z"/></g>
<g><path style="opacity:0.302" fill="#f5d885" d="M 379.5,91.5 C 380.833,91.5 382.167,91.5 383.5,91.5C 383.5,91.8333 383.5,92.1667 383.5,92.5C 382.5,92.8333 381.833,93.5 381.5,94.5C 380.094,94.0269 379.427,93.0269 379.5,91.5 Z"/></g>
<g><path style="opacity:0.302" fill="#fdfcf3" d="M 438.5,91.5 C 441.388,90.9898 443.721,91.6565 445.5,93.5C 446.5,96.1667 447.5,96.1667 448.5,93.5C 448.611,92.8826 448.944,92.3826 449.5,92C 455.918,90.3929 458.251,92.8929 456.5,99.5C 455.833,99.5 455.5,99.8333 455.5,100.5C 453.427,101.3 451.76,102.633 450.5,104.5C 449.504,104.414 448.671,104.748 448,105.5C 446.556,103.845 444.722,103.178 442.5,103.5C 440.806,102.473 439.473,101.139 438.5,99.5C 437.167,96.8333 437.167,94.1667 438.5,91.5 Z"/></g>
<g><path style="opacity:0.302" fill="#f8d67a" d="M 245.5,91.5 C 243.302,91.1201 241.635,91.7868 240.5,93.5C 239.387,94.9464 239.22,96.6131 240,98.5C 240.997,100.323 242.164,101.99 243.5,103.5C 239.652,102.376 237.986,99.7095 238.5,95.5C 239.026,90.81 241.359,89.4767 245.5,91.5 Z"/></g>
<g><path style="opacity:0.302" fill="#f9edb4" d="M 255.5,91.5 C 253.027,91.7991 250.86,92.7991 249,94.5C 247.97,94.1639 247.47,93.4972 247.5,92.5C 249.675,92.3178 251.675,91.6511 253.5,90.5C 254.416,90.5427 255.083,90.8761 255.5,91.5 Z"/></g>
<g><path style="opacity:0.302" fill="#fdfbea" d="M 312.5,91.5 C 312.833,91.5 313.167,91.5 313.5,91.5C 313.47,92.4972 313.97,93.1639 315,93.5C 317.755,91.4518 320.589,91.1184 323.5,92.5C 321.801,92.3398 320.134,92.5065 318.5,93C 317.48,94.5557 316.147,95.7224 314.5,96.5C 311.225,93.6284 309.225,94.4617 308.5,99C 309.729,100.386 310.729,101.886 311.5,103.5C 309.589,102.925 307.922,101.925 306.5,100.5C 305.631,98.283 305.298,95.9496 305.5,93.5C 305.5,93.1667 305.5,92.8333 305.5,92.5C 307.717,91.6314 310.05,91.298 312.5,91.5 Z"/></g>
<g><path style="opacity:0.302" fill="#f6dcb4" d="M 445.5,93.5 C 446.5,93.5 447.5,93.5 448.5,93.5C 447.5,96.1667 446.5,96.1667 445.5,93.5 Z"/></g>
<g><path style="opacity:0.302" fill="#fdfdf6" d="M 115.5,93.5 C 116.167,93.5 116.833,93.5 117.5,93.5C 119.764,92.7814 122.097,92.448 124.5,92.5C 124.5,95.1667 124.5,97.8333 124.5,100.5C 123.662,100.842 123.328,101.508 123.5,102.5C 121.246,103.124 119.579,104.457 118.5,106.5C 117.167,107.833 115.833,107.833 114.5,106.5C 112.5,104.167 110.5,101.833 108.5,99.5C 108.5,97.1667 108.5,94.8333 108.5,92.5C 110.95,92.298 113.283,92.6314 115.5,93.5 Z"/></g>
<g><path style="opacity:0.302" fill="#fefcfb" d="M 190.5,100.5 C 187.943,102.032 185.443,103.699 183,105.5C 181.644,104.62 180.144,104.286 178.5,104.5C 178.229,102.57 177.229,101.236 175.5,100.5C 179.184,92.2585 182.017,92.5918 184,101.5C 185.026,98.3072 187.192,96.9738 190.5,97.5C 190.5,98.5 190.5,99.5 190.5,100.5 Z"/></g>
<g><path style="opacity:0.302" fill="#fefdfa" d="M 323.5,92.5 C 324.468,94.6074 324.802,96.9407 324.5,99.5C 323.833,99.5 323.5,99.8333 323.5,100.5C 321.071,100.884 318.737,101.551 316.5,102.5C 316.5,103.5 316.5,104.5 316.5,105.5C 315.167,105.5 313.833,105.5 312.5,105.5C 311.662,105.158 311.328,104.492 311.5,103.5C 310.729,101.886 309.729,100.386 308.5,99C 309.225,94.4617 311.225,93.6284 314.5,96.5C 316.147,95.7224 317.48,94.5557 318.5,93C 320.134,92.5065 321.801,92.3398 323.5,92.5 Z"/></g>
<g><path style="opacity:0.302" fill="#fff7d4" d="M 59.5,100.5 C 59.1667,100.5 58.8333,100.5 58.5,100.5C 58.5,97.8333 58.5,95.1667 58.5,92.5C 55.2447,92.0136 52.578,93.0136 50.5,95.5C 49.7025,95.0431 49.3691,94.3764 49.5,93.5C 57.9629,88.4009 61.2963,90.7343 59.5,100.5 Z"/></g>
<g><path style="opacity:0.302" fill="#fad272" d="M 258.5,93.5 C 261.199,96.0466 260.866,98.3799 257.5,100.5C 258.219,98.2362 258.552,95.9029 258.5,93.5 Z"/></g>
<g><path style="opacity:0.302" fill="#f8ce5f" d="M 191.5,91.5 C 192.458,91.9528 193.292,92.6195 194,93.5C 194.498,96.4816 194.665,99.4816 194.5,102.5C 192.784,102.629 191.117,102.962 189.5,103.5C 190.167,102.5 190.833,101.5 191.5,100.5C 192.756,98.059 192.756,95.7257 191.5,93.5C 191.5,92.8333 191.5,92.1667 191.5,91.5 Z"/></g>
<g><path style="opacity:0.302" fill="#fdd174" d="M 305.5,93.5 C 305.298,95.9496 305.631,98.283 306.5,100.5C 305.275,99.8478 304.608,98.6811 304.5,97C 304.514,95.6153 304.848,94.4486 305.5,93.5 Z"/></g>
<g><path style="opacity:0.302" fill="#fadd82" d="M 41.5,92.5 C 41.1984,95.0593 41.5318,97.3926 42.5,99.5C 43.5,100.833 44.5,102.167 45.5,103.5C 43.9557,103.297 42.6223,102.63 41.5,101.5C 40.1968,98.3553 40.1968,95.3553 41.5,92.5 Z"/></g>
<g><path style="opacity:0.302" fill="#f9d37b" d="M 107.5,93.5 C 107.205,95.7354 107.539,97.7354 108.5,99.5C 110.5,101.833 112.5,104.167 114.5,106.5C 111.925,105.272 109.592,103.605 107.5,101.5C 106.2,98.6908 106.2,96.0241 107.5,93.5 Z"/></g>
<g><path style="opacity:0.302" fill="#f7eb99" d="M 173.5,99.5 C 174.167,99.8333 174.833,100.167 175.5,100.5C 177.229,101.236 178.229,102.57 178.5,104.5C 177.5,103.833 176.5,103.167 175.5,102.5C 174.094,102.027 173.427,101.027 173.5,99.5 Z"/></g>
<g><path style="opacity:0.302" fill="#fffbdb" d="M 323.5,100.5 C 321.861,101.473 320.527,102.806 319.5,104.5C 318.143,105.685 316.643,106.685 315,107.5C 313.699,107.361 312.866,106.695 312.5,105.5C 313.833,105.5 315.167,105.5 316.5,105.5C 316.5,104.5 316.5,103.5 316.5,102.5C 318.737,101.551 321.071,100.884 323.5,100.5 Z"/></g>
<g><path style="opacity:0.302" fill="#f4cd60" d="M 438.5,99.5 C 439.473,101.139 440.806,102.473 442.5,103.5C 443.167,104.5 443.833,105.5 444.5,106.5C 440.074,106.28 438.074,103.946 438.5,99.5 Z"/></g>
<g><path style="opacity:0.302" fill="#f5e095" d="M 58.5,100.5 C 58.8333,100.5 59.1667,100.5 59.5,100.5C 58.0892,102.914 56.0892,104.581 53.5,105.5C 54.8333,103.5 56.5,101.833 58.5,100.5 Z"/></g>
<g><path style="opacity:0.302" fill="#fbd884" d="M 123.5,102.5 C 122.461,104.531 120.795,105.864 118.5,106.5C 119.579,104.457 121.246,103.124 123.5,102.5 Z"/></g>
<g><path style="opacity:0.302" fill="#fff5ce" d="M 190.5,100.5 C 190.833,100.5 191.167,100.5 191.5,100.5C 190.833,101.5 190.167,102.5 189.5,103.5C 186.959,104.688 184.459,106.022 182,107.5C 180.636,106.629 179.47,105.629 178.5,104.5C 180.144,104.286 181.644,104.62 183,105.5C 185.443,103.699 187.943,102.032 190.5,100.5 Z"/></g>
<g><path style="opacity:0.302" fill="#fefbe4" d="M 240.5,93.5 C 240.351,94.552 240.517,95.552 241,96.5C 241.893,95.2888 242.726,95.2888 243.5,96.5C 242.189,97.2575 241.689,98.2575 242,99.5C 243.016,100.634 243.683,100.301 244,98.5C 245.621,100.493 247.287,102.493 249,104.5C 251.007,103.331 253.173,102.665 255.5,102.5C 253.371,104.95 250.704,106.617 247.5,107.5C 246.5,105.833 245.167,104.5 243.5,103.5C 242.164,101.99 240.997,100.323 240,98.5C 239.22,96.6131 239.387,94.9464 240.5,93.5 Z"/></g>
<g><path style="opacity:0.302" fill="#fff6c9" d="M 372.5,99.5 C 373.583,99.5394 374.583,99.8728 375.5,100.5C 377.178,103.861 379.845,105.528 383.5,105.5C 383.167,106.167 382.833,106.833 382.5,107.5C 378.302,105.974 374.968,103.307 372.5,99.5 Z"/></g>
<g><path style="opacity:0.302" fill="#fff7cf" d="M 442.5,103.5 C 444.722,103.178 446.556,103.845 448,105.5C 448.671,104.748 449.504,104.414 450.5,104.5C 450.5,104.833 450.5,105.167 450.5,105.5C 448.751,107.531 446.751,107.865 444.5,106.5C 443.833,105.5 443.167,104.5 442.5,103.5 Z"/></g>
<g><path style="opacity:0.302" fill="#fce2a0" d="M 455.5,100.5 C 454.483,102.911 452.816,104.578 450.5,105.5C 450.5,105.167 450.5,104.833 450.5,104.5C 451.76,102.633 453.427,101.3 455.5,100.5 Z"/></g>
<g><path style="opacity:0.302" fill="#f7d370" d="M 390.5,98.5 C 390.833,98.5 391.167,98.5 391.5,98.5C 391.5,99.8333 391.5,101.167 391.5,102.5C 390.448,102.351 389.448,102.517 388.5,103C 386.886,105.127 384.886,106.627 382.5,107.5C 382.833,106.833 383.167,106.167 383.5,105.5C 386.194,103.473 388.527,101.139 390.5,98.5 Z"/></g>
<g><path style="opacity:0.302" fill="#f7d263" d="M 257.5,100.5 C 256.97,102.924 256.136,105.257 255,107.5C 252.513,107.825 250.013,107.825 247.5,107.5C 250.704,106.617 253.371,104.95 255.5,102.5C 255.833,101.5 256.5,100.833 257.5,100.5 Z"/></g>
<g><path style="opacity:0.302" fill="#f4d260" d="M 175.5,102.5 C 176.5,103.167 177.5,103.833 178.5,104.5C 179.47,105.629 180.636,106.629 182,107.5C 184.459,106.022 186.959,104.688 189.5,103.5C 186.883,107.795 183.217,109.128 178.5,107.5C 176.722,106.274 175.722,104.607 175.5,102.5 Z"/></g>
<g><path style="opacity:0.302" fill="#f8cf5d" d="M 306.5,100.5 C 307.922,101.925 309.589,102.925 311.5,103.5C 311.328,104.492 311.662,105.158 312.5,105.5C 312.866,106.695 313.699,107.361 315,107.5C 316.643,106.685 318.143,105.685 319.5,104.5C 319.489,106.017 318.823,107.184 317.5,108C 315.19,108.497 312.857,108.663 310.5,108.5C 310.5,107.167 310.5,105.833 310.5,104.5C 309.167,104.5 307.833,104.5 306.5,104.5C 306.5,103.167 306.5,101.833 306.5,100.5 Z"/></g>
<g><path style="opacity:0.302" fill="#facf62" d="M 273.5,111.5 C 279.981,110.31 286.315,110.31 292.5,111.5C 293.652,114.106 293.818,116.773 293,119.5C 292.583,120.756 291.75,121.423 290.5,121.5C 292.247,117.812 291.58,114.645 288.5,112C 287.251,111.26 286.251,111.427 285.5,112.5C 283.926,112.937 282.759,113.937 282,115.5C 281.292,114.619 280.458,113.953 279.5,113.5C 278.082,111.692 276.082,111.025 273.5,111.5 Z"/></g>
<g><path style="opacity:0.302" fill="#f7d068" d="M 355.5,111.5 C 352.122,110.891 350.122,112.224 349.5,115.5C 347.167,115.167 345.833,113.833 345.5,111.5C 348.999,110.556 352.332,110.556 355.5,111.5 Z"/></g>
<g><path style="opacity:0.302" fill="#fff1c1" d="M 224.5,113.5 C 222.863,112.782 221.197,112.616 219.5,113C 218.881,114.757 217.714,115.924 216,116.5C 214.97,116.164 214.47,115.497 214.5,114.5C 216.368,115.674 217.368,115.007 217.5,112.5C 220.216,110.914 222.55,111.247 224.5,113.5 Z"/></g>
<g><path style="opacity:0.302" fill="#fde9a5" d="M 80.5,112.5 C 75.6766,112.327 73.6766,114.661 74.5,119.5C 73.5489,118.081 73.2155,116.415 73.5,114.5C 75.265,111.551 77.5983,110.885 80.5,112.5 Z"/></g>
<g><path style="opacity:0.302" fill="#fef9ce" d="M 93.5,119.5 C 93.1667,119.5 92.8333,119.5 92.5,119.5C 92.0436,113.289 89.2103,111.955 84,115.5C 81.7253,115.722 80.5587,114.722 80.5,112.5C 82.7826,115.214 84.7826,115.047 86.5,112C 91.6616,111.665 93.995,114.165 93.5,119.5 Z"/></g>
<g><path style="opacity:0.302" fill="#fdf1b3" d="M 273.5,111.5 C 276.082,111.025 278.082,111.692 279.5,113.5C 277.585,113.216 275.919,113.549 274.5,114.5C 273.539,116.265 273.205,118.265 273.5,120.5C 270.857,117.568 270.857,114.568 273.5,111.5 Z"/></g>
<g><path style="opacity:0.302" fill="#fdfdfb" d="M 151.5,113.5 C 153.429,113.231 155.095,113.731 156.5,115C 156.167,115.333 155.833,115.667 155.5,116C 159.278,117.64 159.278,118.807 155.5,119.5C 155.003,124.493 152.836,125.493 149,122.5C 148.333,123.167 147.667,123.833 147,124.5C 146.329,123.748 145.496,123.414 144.5,123.5C 144.489,121.983 143.823,120.816 142.5,120C 142.799,118.68 142.966,117.18 143,115.5C 143.333,115.167 143.667,114.833 144,114.5C 145.707,115.459 147.541,116.125 149.5,116.5C 150.713,116.253 151.38,115.586 151.5,114.5C 151.5,114.167 151.5,113.833 151.5,113.5 Z"/></g>
<g><path style="opacity:0.302" fill="#fefdf5" d="M 290.5,121.5 C 288.833,122.833 287.167,124.167 285.5,125.5C 282.214,128.267 279.214,127.934 276.5,124.5C 275.5,123.167 274.5,121.833 273.5,120.5C 273.205,118.265 273.539,116.265 274.5,114.5C 277.983,114.691 281.316,115.357 284.5,116.5C 284.433,115.041 284.766,113.708 285.5,112.5C 286.251,111.427 287.251,111.26 288.5,112C 291.58,114.645 292.247,117.812 290.5,121.5 Z"/></g>
<g><path style="opacity:0.302" fill="#fffbe1" d="M 355.5,111.5 C 355.5,111.833 355.5,112.167 355.5,112.5C 355.833,113.167 356.167,113.833 356.5,114.5C 354.097,114.448 351.764,114.781 349.5,115.5C 350.122,112.224 352.122,110.891 355.5,111.5 Z"/></g>
<g><path style="opacity:0.302" fill="#f8e9b3" d="M 25.5,112.5 C 22.4585,112.551 19.7918,113.551 17.5,115.5C 15.484,115.484 14.484,114.484 14.5,112.5C 18.2125,112.247 21.8792,112.247 25.5,112.5 Z"/></g>
<g><path style="opacity:0.302" fill="#fcfdf6" d="M 80.5,112.5 C 80.5587,114.722 81.7253,115.722 84,115.5C 89.2103,111.955 92.0436,113.289 92.5,119.5C 91.5589,121.772 90.2255,123.772 88.5,125.5C 86.4418,126.933 84.1085,127.6 81.5,127.5C 79.1377,124.808 76.8044,122.141 74.5,119.5C 73.6766,114.661 75.6766,112.327 80.5,112.5 Z"/></g>
<g><path style="opacity:0.302" fill="#fffdd4" d="M 214.5,114.5 C 209.166,112.074 206.833,113.741 207.5,119.5C 204.986,113.507 206.986,111.341 213.5,113C 214.056,113.383 214.389,113.883 214.5,114.5 Z"/></g>
<g><path style="opacity:0.302" fill="#fdfadb" d="M 285.5,112.5 C 284.766,113.708 284.433,115.041 284.5,116.5C 281.316,115.357 277.983,114.691 274.5,114.5C 275.919,113.549 277.585,113.216 279.5,113.5C 280.458,113.953 281.292,114.619 282,115.5C 282.759,113.937 283.926,112.937 285.5,112.5 Z"/></g>
<g><path style="opacity:0.302" fill="#fcfdfb" d="M 356.5,114.5 C 356.5,116.5 356.5,118.5 356.5,120.5C 355.178,120.67 354.011,120.337 353,119.5C 351.513,120.253 351.346,121.086 352.5,122C 350.622,125.442 347.956,126.275 344.5,124.5C 342.77,123.974 341.436,122.974 340.5,121.5C 340.5,119.5 340.5,117.5 340.5,115.5C 343.482,115.104 346.149,115.771 348.5,117.5C 349.298,117.043 349.631,116.376 349.5,115.5C 351.764,114.781 354.097,114.448 356.5,114.5 Z"/></g>
<g><path style="opacity:0.302" fill="#fdfde9" d="M 151.5,114.5 C 151.38,115.586 150.713,116.253 149.5,116.5C 147.541,116.125 145.707,115.459 144,114.5C 143.667,114.833 143.333,115.167 143,115.5C 142.966,117.18 142.799,118.68 142.5,120C 143.823,120.816 144.489,121.983 144.5,123.5C 144.167,123.5 143.833,123.5 143.5,123.5C 142.833,122.5 142.167,121.5 141.5,120.5C 139.806,117.411 140.472,114.911 143.5,113C 145.76,112.956 147.76,113.789 149.5,115.5C 150.183,115.137 150.85,114.804 151.5,114.5 Z"/></g>
<g><path style="opacity:0.302" fill="#fdfdf6" d="M 224.5,113.5 C 224.833,113.5 225.167,113.5 225.5,113.5C 226.342,118.051 225.008,121.717 221.5,124.5C 220.508,124.328 219.842,124.662 219.5,125.5C 217.863,126.218 216.197,126.384 214.5,126C 215.458,124.853 215.125,123.853 213.5,123C 211.846,122.392 210.179,121.892 208.5,121.5C 208.167,121.5 207.833,121.5 207.5,121.5C 207.5,120.833 207.5,120.167 207.5,119.5C 206.833,113.741 209.166,112.074 214.5,114.5C 214.47,115.497 214.97,116.164 216,116.5C 217.714,115.924 218.881,114.757 219.5,113C 221.197,112.616 222.863,112.782 224.5,113.5 Z"/></g>
<g><path style="opacity:0.302" fill="#fdf9e0" d="M 345.5,111.5 C 345.833,113.833 347.167,115.167 349.5,115.5C 349.631,116.376 349.298,117.043 348.5,117.5C 346.149,115.771 343.482,115.104 340.5,115.5C 340.5,117.5 340.5,119.5 340.5,121.5C 336.63,115.369 338.296,112.036 345.5,111.5 Z"/></g>
<g><path style="opacity:0.302" fill="#fdfdfb" d="M 413.5,115.5 C 414.722,119.241 416.722,119.908 419.5,117.5C 420.434,119.095 420.434,120.761 419.5,122.5C 418.038,123.458 416.705,124.624 415.5,126C 413.803,126.384 412.137,126.218 410.5,125.5C 409.833,125.5 409.5,125.167 409.5,124.5C 409.297,122.956 408.63,121.622 407.5,120.5C 408.609,119.035 408.109,118.035 406,117.5C 405.517,116.552 405.351,115.552 405.5,114.5C 408.167,114.833 410.833,115.167 413.5,115.5 Z"/></g>
<g><path style="opacity:0.302" fill="#fefdf0" d="M 423.5,121.5 C 422.508,121.328 421.842,121.662 421.5,122.5C 420.833,122.5 420.167,122.5 419.5,122.5C 420.434,120.761 420.434,119.095 419.5,117.5C 416.722,119.908 414.722,119.241 413.5,115.5C 414.833,115.5 415.5,114.833 415.5,113.5C 422.922,110.981 425.588,113.648 423.5,121.5 Z"/></g>
<g><path style="opacity:0.302" fill="#fdf0bd" d="M 14.5,112.5 C 9.6766,112.327 7.6766,114.661 8.5,119.5C 7.53862,117.735 7.20528,115.735 7.5,113.5C 9.69646,111.455 12.0298,111.122 14.5,112.5 Z"/></g>
<g><path style="opacity:0.302" fill="#fae6a9" d="M 146.5,111.5 C 148.167,112.167 149.833,112.833 151.5,113.5C 151.5,113.833 151.5,114.167 151.5,114.5C 150.85,114.804 150.183,115.137 149.5,115.5C 147.76,113.789 145.76,112.956 143.5,113C 140.472,114.911 139.806,117.411 141.5,120.5C 140.007,119.688 139.34,118.355 139.5,116.5C 140.237,112.665 142.57,110.998 146.5,111.5 Z"/></g>
<g><path style="opacity:0.302" fill="#fbe287" d="M 355.5,112.5 C 356.5,112.5 357.5,112.5 358.5,112.5C 358.802,115.059 358.468,117.393 357.5,119.5C 357.784,117.585 357.451,115.919 356.5,114.5C 356.167,113.833 355.833,113.167 355.5,112.5 Z"/></g>
<g><path style="opacity:0.302" fill="#fdfdf3" d="M 14.5,112.5 C 14.484,114.484 15.484,115.484 17.5,115.5C 19.7918,113.551 22.4585,112.551 25.5,112.5C 27.1675,114.479 27.8342,116.812 27.5,119.5C 25.6593,120.402 24.326,121.736 23.5,123.5C 21.4916,124.898 19.4916,126.231 17.5,127.5C 15.9271,127.248 14.5938,126.582 13.5,125.5C 11.8437,123.54 10.177,121.54 8.5,119.5C 7.6766,114.661 9.6766,112.327 14.5,112.5 Z"/></g>
<g><path style="opacity:0.302" fill="#fbcc5d" d="M 146.5,111.5 C 142.57,110.998 140.237,112.665 139.5,116.5C 139.34,118.355 140.007,119.688 141.5,120.5C 142.167,121.5 142.833,122.5 143.5,123.5C 140.862,121.878 138.196,120.211 135.5,118.5C 136.325,117.614 137.325,117.281 138.5,117.5C 138.033,111.079 140.7,109.079 146.5,111.5 Z"/></g>
<g><path style="opacity:0.302" fill="#fbde87" d="M 423.5,121.5 C 425.588,113.648 422.922,110.981 415.5,113.5C 415.611,112.883 415.944,112.383 416.5,112C 418.833,111.333 421.167,111.333 423.5,112C 424.818,115.269 424.818,118.435 423.5,121.5 Z"/></g>
<g><path style="opacity:0.302" fill="#f7d46f" d="M 217.5,112.5 C 217.368,115.007 216.368,115.674 214.5,114.5C 214.389,113.883 214.056,113.383 213.5,113C 206.986,111.341 204.986,113.507 207.5,119.5C 207.5,120.167 207.5,120.833 207.5,121.5C 206.542,121.047 205.708,120.381 205,119.5C 204.503,116.854 204.336,114.187 204.5,111.5C 208.881,111.372 213.215,111.705 217.5,112.5 Z"/></g>
<g><path style="opacity:0.302" fill="#fffada" d="M 413.5,115.5 C 410.833,115.167 408.167,114.833 405.5,114.5C 405.351,115.552 405.517,116.552 406,117.5C 408.109,118.035 408.609,119.035 407.5,120.5C 408.63,121.622 409.297,122.956 409.5,124.5C 409.167,124.5 408.833,124.5 408.5,124.5C 408.5,123.833 408.167,123.5 407.5,123.5C 405.022,120.671 404.022,117.338 404.5,113.5C 408.216,110.623 411.216,111.289 413.5,115.5 Z"/></g>
<g><path style="opacity:0.302" fill="#fefadf" d="M 159.5,113.5 C 160.342,118.051 159.008,121.717 155.5,124.5C 151.301,128.821 147.634,128.487 144.5,123.5C 145.496,123.414 146.329,123.748 147,124.5C 147.667,123.833 148.333,123.167 149,122.5C 152.836,125.493 155.003,124.493 155.5,119.5C 159.278,118.807 159.278,117.64 155.5,116C 155.833,115.667 156.167,115.333 156.5,115C 155.095,113.731 153.429,113.231 151.5,113.5C 154.045,110.925 156.712,110.925 159.5,113.5 Z"/></g>
<g><path style="opacity:0.302" fill="#f8d364" d="M 73.5,114.5 C 73.2155,116.415 73.5489,118.081 74.5,119.5C 76.8044,122.141 79.1377,124.808 81.5,127.5C 78.8111,125.657 75.9777,123.99 73,122.5C 72.1993,119.633 72.3659,116.966 73.5,114.5 Z"/></g>
<g><path style="opacity:0.302" fill="#f4d05e" d="M 6.5,110.5 C 6.26269,111.791 6.59603,112.791 7.5,113.5C 7.20528,115.735 7.53862,117.735 8.5,119.5C 10.177,121.54 11.8437,123.54 13.5,125.5C 13.5,126.167 13.5,126.833 13.5,127.5C 11.7901,125.8 9.79006,124.467 7.5,123.5C 7.09352,120.061 6.09352,117.061 4.5,114.5C 4.98869,113.005 5.65536,111.671 6.5,110.5 Z"/></g>
<g><path style="opacity:0.302" fill="#f8ce63" d="M 159.5,113.5 C 160.634,115.966 160.801,118.633 160,121.5C 158.871,123.141 157.371,124.141 155.5,124.5C 159.008,121.717 160.342,118.051 159.5,113.5 Z"/></g>
<g><path style="opacity:0.302" fill="#f9d574" d="M 225.5,113.5 C 226.634,115.966 226.801,118.633 226,121.5C 224.871,123.141 223.371,124.141 221.5,124.5C 225.008,121.717 226.342,118.051 225.5,113.5 Z"/></g>
<g><path style="opacity:0.302" fill="#f1d368" d="M 404.5,113.5 C 404.022,117.338 405.022,120.671 407.5,123.5C 406.417,123.461 405.417,123.127 404.5,122.5C 403.197,119.355 403.197,116.355 404.5,113.5 Z"/></g>
<g><path style="opacity:0.302" fill="#f3d865" d="M 27.5,119.5 C 28.1378,122.856 26.8044,124.856 23.5,125.5C 23.5,124.833 23.5,124.167 23.5,123.5C 24.326,121.736 25.6593,120.402 27.5,119.5 Z"/></g>
<g><path style="opacity:0.302" fill="#fffbe1" d="M 208.5,121.5 C 210.179,121.892 211.846,122.392 213.5,123C 215.125,123.853 215.458,124.853 214.5,126C 216.197,126.384 217.863,126.218 219.5,125.5C 216.955,128.075 214.288,128.075 211.5,125.5C 210.5,124.167 209.5,122.833 208.5,121.5 Z"/></g>
<g><path style="opacity:0.302" fill="#f6d578" d="M 92.5,119.5 C 92.8333,119.5 93.1667,119.5 93.5,119.5C 93.2283,122.732 91.5616,124.732 88.5,125.5C 90.2255,123.772 91.5589,121.772 92.5,119.5 Z"/></g>
<g><path style="opacity:0.302" fill="#fefde6" d="M 356.5,114.5 C 357.451,115.919 357.784,117.585 357.5,119.5C 357.672,120.492 357.338,121.158 356.5,121.5C 354.167,123.167 352.167,125.167 350.5,127.5C 347.687,127.975 345.687,126.975 344.5,124.5C 347.956,126.275 350.622,125.442 352.5,122C 351.346,121.086 351.513,120.253 353,119.5C 354.011,120.337 355.178,120.67 356.5,120.5C 356.5,118.5 356.5,116.5 356.5,114.5 Z"/></g>
<g><path style="opacity:0.302" fill="#f5d378" d="M 356.5,121.5 C 355.5,124.5 353.5,126.5 350.5,127.5C 352.167,125.167 354.167,123.167 356.5,121.5 Z"/></g>
<g><path style="opacity:0.302" fill="#fefbce" d="M 419.5,122.5 C 420.167,122.5 420.833,122.5 421.5,122.5C 421.5,122.833 421.5,123.167 421.5,123.5C 419.122,125.041 416.622,126.375 414,127.5C 412.301,127.613 411.134,126.947 410.5,125.5C 412.137,126.218 413.803,126.384 415.5,126C 416.705,124.624 418.038,123.458 419.5,122.5 Z"/></g>
<g><path style="opacity:0.302" fill="#f7d782" d="M 23.5,123.5 C 23.5,124.167 23.5,124.833 23.5,125.5C 20.7447,128.518 17.4114,129.185 13.5,127.5C 13.5,126.833 13.5,126.167 13.5,125.5C 14.5938,126.582 15.9271,127.248 17.5,127.5C 19.4916,126.231 21.4916,124.898 23.5,123.5 Z"/></g>
<g><path style="opacity:0.302" fill="#f5d463" d="M 143.5,123.5 C 143.833,123.5 144.167,123.5 144.5,123.5C 147.634,128.487 151.301,128.821 155.5,124.5C 155.199,127.359 153.533,128.693 150.5,128.5C 146.509,129.015 144.176,127.348 143.5,123.5 Z"/></g>
<g><path style="opacity:0.302" fill="#fad56b" d="M 221.5,124.5 C 220.967,127.525 219.133,128.858 216,128.5C 213.374,128.95 211.874,127.95 211.5,125.5C 214.288,128.075 216.955,128.075 219.5,125.5C 219.842,124.662 220.508,124.328 221.5,124.5 Z"/></g>
<g><path style="opacity:0.302" fill="#f8d77a" d="M 276.5,124.5 C 279.214,127.934 282.214,128.267 285.5,125.5C 285.315,127.89 283.982,128.89 281.5,128.5C 278.623,128.619 276.956,127.286 276.5,124.5 Z"/></g>
<g><path style="opacity:0.302" fill="#f9d25f" d="M 421.5,123.5 C 419.028,127.808 415.528,129.808 411,129.5C 409.562,128.1 408.729,126.433 408.5,124.5C 408.833,124.5 409.167,124.5 409.5,124.5C 409.5,125.167 409.833,125.5 410.5,125.5C 411.134,126.947 412.301,127.613 414,127.5C 416.622,126.375 419.122,125.041 421.5,123.5 Z"/></g>
</svg>
